solid window unit
facet normal 0.0 1.0 0.0
  outer loop
    vertex 29.99999999999999 6.8 2.000000000000043
    vertex 27.199999999999978 6.8 6.500000000000036
    vertex 29.99999999999998 6.8 6.5000000000000435
  endloop
endfacet
facet normal 0.0 1.0 0.0
  outer loop
    vertex 27.199999999999978 6.8 6.500000000000036
    vertex 29.99999999999999 6.8 2.000000000000043
    vertex 27.19999999999999 6.8 2.000000000000036
  endloop
endfacet
facet normal 0.0 -1.0 0.0
  outer loop
    vertex 27.19999999999999 2.1999999999999997 2.000000000000036
    vertex 29.99999999999998 2.1999999999999997 6.5000000000000435
    vertex 27.199999999999978 2.1999999999999997 6.500000000000036
  endloop
endfacet
facet normal 0.0 -1.0 0.0
  outer loop
    vertex 29.99999999999998 2.1999999999999997 6.5000000000000435
    vertex 27.19999999999999 2.1999999999999997 2.000000000000036
    vertex 29.99999999999999 2.1999999999999997 2.000000000000043
  endloop
endfacet
facet normal -1.0 0.0 -2.581268532253489e-15
  outer loop
    vertex 27.199999999999978 6.8 6.500000000000036
    vertex 27.19999999999999 2.1999999999999997 2.000000000000036
    vertex 27.199999999999978 2.1999999999999997 6.500000000000036
  endloop
endfacet
facet normal -1.0 0.0 -2.581268532253489e-15
  outer loop
    vertex 27.19999999999999 2.1999999999999997 2.000000000000036
    vertex 27.199999999999978 6.8 6.500000000000036
    vertex 27.19999999999999 6.8 2.000000000000036
  endloop
endfacet
facet normal 0.0 -1.0 -0.0
  outer loop
    vertex -2.5000000000000067 0.0 -3.947953075567056e-14
    vertex 29.99999999999999 0.0 2.000000000000043
    vertex -2.5000000000000124 0.0 1.999999999999959
  endloop
endfacet
facet normal 0.0 -1.0 -0.0
  outer loop
    vertex 29.99999999999999 0.0 2.000000000000043
    vertex -2.5000000000000067 0.0 -3.947953075567056e-14
    vertex 29.999999999999996 0.0 4.370948047949241e-14
  endloop
endfacet
facet normal -1.0 0.0 -2.581268532253489e-15
  outer loop
    vertex -2.5000000000000235 20.8 6.49999999999996
    vertex -2.5000000000000124 16.200000000000003 1.999999999999959
    vertex -2.5000000000000235 16.200000000000003 6.49999999999996
  endloop
endfacet
facet normal -1.0 0.0 -2.581268532253489e-15
  outer loop
    vertex -2.5000000000000124 16.200000000000003 1.999999999999959
    vertex -2.5000000000000067 0.0 -3.947953075567056e-14
    vertex -2.5000000000000124 0.0 1.999999999999959
  endloop
endfacet
facet normal -1.0 0.0 -2.581268532253489e-15
  outer loop
    vertex -2.5000000000000067 0.0 -3.947953075567056e-14
    vertex -2.5000000000000124 16.200000000000003 1.999999999999959
    vertex -2.5000000000000067 40.0 -3.947953075567056e-14
  endloop
endfacet
facet normal -1.0 0.0 -2.581268532253489e-15
  outer loop
    vertex -2.5000000000000067 40.0 -3.947953075567056e-14
    vertex -2.5000000000000124 16.200000000000003 1.999999999999959
    vertex -2.5000000000000124 20.8 1.999999999999959
  endloop
endfacet
facet normal -1.0 0.0 -2.581268532253489e-15
  outer loop
    vertex -2.5000000000000124 20.8 1.999999999999959
    vertex -2.5000000000000124 16.200000000000003 1.999999999999959
    vertex -2.5000000000000235 20.8 6.49999999999996
  endloop
endfacet
facet normal -1.0 0.0 -2.581268532253489e-15
  outer loop
    vertex -2.5000000000000067 40.0 -3.947953075567056e-14
    vertex -2.5000000000000124 20.8 1.999999999999959
    vertex -2.5000000000000124 40.0 1.999999999999959
  endloop
endfacet
facet normal 0.0 1.0 0.0
  outer loop
    vertex 29.999999999999996 40.0 4.370948047949241e-14
    vertex -2.5000000000000124 40.0 1.999999999999959
    vertex 29.99999999999999 40.0 2.000000000000043
  endloop
endfacet
facet normal 0.0 1.0 0.0
  outer loop
    vertex -2.5000000000000124 40.0 1.999999999999959
    vertex 29.999999999999996 40.0 4.370948047949241e-14
    vertex -2.5000000000000067 40.0 -3.947953075567056e-14
  endloop
endfacet
facet normal 1.0 3.047245271092317e-17 2.6993492865083164e-15
  outer loop
    vertex 29.999999999999996 40.0 4.370948047949241e-14
    vertex 29.99999999999999 0.0 2.000000000000043
    vertex 29.999999999999996 0.0 4.370948047949241e-14
  endloop
endfacet
facet normal 1.0 3.047245271092317e-17 2.6993492865083164e-15
  outer loop
    vertex 29.99999999999999 0.0 2.000000000000043
    vertex 29.999999999999996 40.0 4.370948047949241e-14
    vertex 29.99999999999999 2.1999999999999997 2.000000000000043
  endloop
endfacet
facet normal 1.0 3.047245271092317e-17 2.6993492865083164e-15
  outer loop
    vertex 29.99999999999999 2.1999999999999997 2.000000000000043
    vertex 29.999999999999996 40.0 4.370948047949241e-14
    vertex 29.99999999999999 6.8 2.000000000000043
  endloop
endfacet
facet normal 1.0 3.047245271092317e-17 2.6993492865083164e-15
  outer loop
    vertex 29.99999999999999 2.1999999999999997 2.000000000000043
    vertex 29.99999999999999 6.8 2.000000000000043
    vertex 29.99999999999998 2.1999999999999997 6.5000000000000435
  endloop
endfacet
facet normal 1.0 3.047245271092317e-17 2.6993492865083164e-15
  outer loop
    vertex 29.99999999999999 6.8 2.000000000000043
    vertex 29.999999999999996 40.0 4.370948047949241e-14
    vertex 29.99999999999999 40.0 2.000000000000043
  endloop
endfacet
facet normal 1.0 3.047245271092317e-17 2.6993492865083164e-15
  outer loop
    vertex 29.99999999999998 6.8 6.5000000000000435
    vertex 29.99999999999998 2.1999999999999997 6.5000000000000435
    vertex 29.99999999999999 6.8 2.000000000000043
  endloop
endfacet
facet normal 2.581268532253489e-15 0.0 -1.0
  outer loop
    vertex -2.5000000000000067 0.0 -3.947953075567056e-14
    vertex 29.999999999999996 40.0 4.370948047949241e-14
    vertex 29.999999999999996 0.0 4.370948047949241e-14
  endloop
endfacet
facet normal 2.581268532253489e-15 0.0 -1.0
  outer loop
    vertex 29.999999999999996 40.0 4.370948047949241e-14
    vertex -2.5000000000000067 0.0 -3.947953075567056e-14
    vertex -2.5000000000000067 40.0 -3.947953075567056e-14
  endloop
endfacet
facet normal -2.581268532253489e-15 0.0 1.0
  outer loop
    vertex 29.99999999999999 40.0 2.000000000000043
    vertex 27.19999999999999 6.8 2.000000000000036
    vertex 29.99999999999999 6.8 2.000000000000043
  endloop
endfacet
facet normal -2.581268532253489e-15 0.0 1.0
  outer loop
    vertex 27.19999999999999 6.8 2.000000000000036
    vertex 29.99999999999999 40.0 2.000000000000043
    vertex -2.5000000000000124 40.0 1.999999999999959
  endloop
endfacet
facet normal -2.581268532253489e-15 0.0 1.0
  outer loop
    vertex 27.19999999999999 6.8 2.000000000000036
    vertex -2.5000000000000124 40.0 1.999999999999959
    vertex 27.19999999999999 2.1999999999999997 2.000000000000036
  endloop
endfacet
facet normal -2.581268532253489e-15 0.0 1.0
  outer loop
    vertex 27.19999999999999 2.1999999999999997 2.000000000000036
    vertex -2.5000000000000124 40.0 1.999999999999959
    vertex 0.29999999999998817 20.8 1.999999999999966
  endloop
endfacet
facet normal -2.581268532253489e-15 0.0 1.0
  outer loop
    vertex 0.29999999999998817 20.8 1.999999999999966
    vertex -2.5000000000000124 40.0 1.999999999999959
    vertex -2.5000000000000124 20.8 1.999999999999959
  endloop
endfacet
facet normal -2.581268532253489e-15 0.0 1.0
  outer loop
    vertex 29.99999999999999 2.1999999999999997 2.000000000000043
    vertex -2.5000000000000124 0.0 1.999999999999959
    vertex 29.99999999999999 0.0 2.000000000000043
  endloop
endfacet
facet normal -2.581268532253489e-15 0.0 1.0
  outer loop
    vertex -2.5000000000000124 0.0 1.999999999999959
    vertex 29.99999999999999 2.1999999999999997 2.000000000000043
    vertex 27.19999999999999 2.1999999999999997 2.000000000000036
  endloop
endfacet
facet normal -2.581268532253489e-15 0.0 1.0
  outer loop
    vertex -2.5000000000000124 0.0 1.999999999999959
    vertex 27.19999999999999 2.1999999999999997 2.000000000000036
    vertex 0.29999999999998817 16.200000000000003 1.999999999999966
  endloop
endfacet
facet normal -2.581268532253489e-15 0.0 1.0
  outer loop
    vertex 0.29999999999998817 16.200000000000003 1.999999999999966
    vertex 27.19999999999999 2.1999999999999997 2.000000000000036
    vertex 0.29999999999998817 20.8 1.999999999999966
  endloop
endfacet
facet normal -2.581268532253489e-15 0.0 1.0
  outer loop
    vertex -2.5000000000000124 0.0 1.999999999999959
    vertex 0.29999999999998817 16.200000000000003 1.999999999999966
    vertex -2.5000000000000124 16.200000000000003 1.999999999999959
  endloop
endfacet
facet normal -2.581268532253489e-15 0.0 1.0
  outer loop
    vertex 27.199999999999978 6.8 6.500000000000036
    vertex 29.99999999999998 2.1999999999999997 6.5000000000000435
    vertex 29.99999999999998 6.8 6.5000000000000435
  endloop
endfacet
facet normal -2.581268532253489e-15 0.0 1.0
  outer loop
    vertex 29.99999999999998 2.1999999999999997 6.5000000000000435
    vertex 27.199999999999978 6.8 6.500000000000036
    vertex 27.199999999999978 2.1999999999999997 6.500000000000036
  endloop
endfacet
facet normal -2.581268532253489e-15 0.0 1.0
  outer loop
    vertex -2.5000000000000235 20.8 6.49999999999996
    vertex 0.2999999999999769 16.200000000000003 6.499999999999967
    vertex 0.2999999999999769 20.8 6.499999999999967
  endloop
endfacet
facet normal -2.581268532253489e-15 0.0 1.0
  outer loop
    vertex 0.2999999999999769 16.200000000000003 6.499999999999967
    vertex -2.5000000000000235 20.8 6.49999999999996
    vertex -2.5000000000000235 16.200000000000003 6.49999999999996
  endloop
endfacet
facet normal 0.0 1.0 0.0
  outer loop
    vertex 0.29999999999998817 20.8 1.999999999999966
    vertex -2.5000000000000235 20.8 6.49999999999996
    vertex 0.2999999999999769 20.8 6.499999999999967
  endloop
endfacet
facet normal 0.0 1.0 0.0
  outer loop
    vertex -2.5000000000000235 20.8 6.49999999999996
    vertex 0.29999999999998817 20.8 1.999999999999966
    vertex -2.5000000000000124 20.8 1.999999999999959
  endloop
endfacet
facet normal 1.0 0.0 2.581268532253489e-15
  outer loop
    vertex 0.29999999999998817 20.8 1.999999999999966
    vertex 0.2999999999999769 16.200000000000003 6.499999999999967
    vertex 0.29999999999998817 16.200000000000003 1.999999999999966
  endloop
endfacet
facet normal 1.0 0.0 2.581268532253489e-15
  outer loop
    vertex 0.2999999999999769 16.200000000000003 6.499999999999967
    vertex 0.29999999999998817 20.8 1.999999999999966
    vertex 0.2999999999999769 20.8 6.499999999999967
  endloop
endfacet
facet normal 0.0 -1.0 0.0
  outer loop
    vertex -2.5000000000000124 16.200000000000003 1.999999999999959
    vertex 0.2999999999999769 16.200000000000003 6.499999999999967
    vertex -2.5000000000000235 16.200000000000003 6.49999999999996
  endloop
endfacet
facet normal 0.0 -1.0 0.0
  outer loop
    vertex 0.2999999999999769 16.200000000000003 6.499999999999967
    vertex -2.5000000000000124 16.200000000000003 1.999999999999959
    vertex 0.29999999999998817 16.200000000000003 1.999999999999966
  endloop
endfacet
endsolid window unit
