solid window unit
facet normal 0.0 -1.0 0.0
  outer loop
    vertex 61.32031898470812 -50.14906634079256 4.5
    vertex 58.320318984708116 -50.14906634079256 0.0
    vertex 61.32031898470812 -50.14906634079256 0.0
  endloop
endfacet
facet normal 0.0 -1.0 0.0
  outer loop
    vertex 58.320318984708116 -50.14906634079256 0.0
    vertex 61.32031898470812 -50.14906634079256 4.5
    vertex 58.320318984708116 -50.14906634079256 4.5
  endloop
endfacet
facet normal 7.442131740492116e-05 1.1972826066264901e-05 0.9999999971590596
  outer loop
    vertex 33.40758139869525 -60.28043350143713 0.9999999999999999
    vertex 33.320318984708116 -57.75920924624894 1.0133600000000007
    vertex 33.320318984708116 -58.949066340792555 0.9999999999999999
  endloop
endfacet
facet normal 7.442131740492116e-05 1.1972826066264901e-05 0.9999999971590596
  outer loop
    vertex 33.320318984708116 -57.75920924624894 1.0133600000000007
    vertex 33.40758139869525 -60.28043350143713 0.9999999999999999
    vertex 33.320318984708116 -35.649066340792565 1.0000000000000002
  endloop
endfacet
facet normal 7.442131740492116e-05 1.1972826066264901e-05 0.9999999971590596
  outer loop
    vertex 35.42811491373754 -65.15843291668153 0.9999999999999999
    vertex 35.42811491373752 -52.739699764903605 0.9999999999999999
    vertex 34.68685986610686 -64.04906634079259 0.9999999999999999
  endloop
endfacet
facet normal 7.442131740492116e-05 1.1972826066264901e-05 0.9999999971590596
  outer loop
    vertex 35.42811491373752 -52.739699764903605 0.9999999999999999
    vertex 35.42811491373754 -65.15843291668153 0.9999999999999999
    vertex 36.30782981660533 -51.73657717268977 0.9999999999999999
  endloop
endfacet
facet normal 7.442131740492116e-05 1.1972826066264901e-05 0.9999999971590596
  outer loop
    vertex 36.30782981660533 -51.73657717268977 0.9999999999999999
    vertex 35.42811491373754 -65.15843291668153 0.9999999999999999
    vertex 36.307829816605356 -66.16155550889538 0.9999999999999999
  endloop
endfacet
facet normal 7.442131740492116e-05 1.1972826066264901e-05 0.9999999971590596
  outer loop
    vertex 36.30782981660533 -51.73657717268977 0.9999999999999999
    vertex 36.307829816605356 -66.16155550889538 0.9999999999999999
    vertex 37.31095240881916 -50.85686226982196 0.9999999999999999
  endloop
endfacet
facet normal 7.442131740492116e-05 1.1972826066264901e-05 0.9999999971590596
  outer loop
    vertex 37.31095240881916 -50.85686226982196 0.9999999999999999
    vertex 36.307829816605356 -66.16155550889538 0.9999999999999999
    vertex 37.3109524088192 -67.0412704117632 0.9999999999999999
  endloop
endfacet
facet normal 7.442131740492116e-05 1.1972826066264901e-05 0.9999999971590596
  outer loop
    vertex 37.31095240881916 -50.85686226982196 0.9999999999999999
    vertex 37.3109524088192 -67.0412704117632 0.9999999999999999
    vertex 38.42031898470811 -50.11560722219129 0.9999999999999999
  endloop
endfacet
facet normal 7.442131740492116e-05 1.1972826066264901e-05 0.9999999971590596
  outer loop
    vertex 38.42031898470811 -50.11560722219129 0.9999999999999999
    vertex 37.3109524088192 -67.0412704117632 0.9999999999999999
    vertex 38.420318984708146 -67.78252545939385 0.9999999999999999
  endloop
endfacet
facet normal 7.442131740492116e-05 1.1972826066264901e-05 0.9999999971590596
  outer loop
    vertex 38.42031898470811 -50.11560722219129 0.9999999999999999
    vertex 38.420318984708146 -67.78252545939385 0.9999999999999999
    vertex 39.6169479745842 -49.525495109177434 0.9999999999999999
  endloop
endfacet
facet normal 7.442131740492116e-05 1.1972826066264901e-05 0.9999999971590596
  outer loop
    vertex 39.6169479745842 -49.525495109177434 0.9999999999999999
    vertex 38.420318984708146 -67.78252545939385 0.9999999999999999
    vertex 39.61694797458423 -68.3726375724077 0.9999999999999999
  endloop
endfacet
facet normal 7.442131740492116e-05 1.1972826066264901e-05 0.9999999971590596
  outer loop
    vertex 39.6169479745842 -49.525495109177434 0.9999999999999999
    vertex 39.61694797458423 -68.3726375724077 0.9999999999999999
    vertex 40.8803647246624 -49.09662291264406 0.9999999999999999
  endloop
endfacet
facet normal 7.442131740492116e-05 1.1972826066264901e-05 0.9999999971590596
  outer loop
    vertex 40.8803647246624 -49.09662291264406 0.9999999999999999
    vertex 39.61694797458423 -68.3726375724077 0.9999999999999999
    vertex 40.880364724662435 -68.80150976894106 0.9999999999999999
  endloop
endfacet
facet normal 7.442131740492116e-05 1.1972826066264901e-05 0.9999999971590596
  outer loop
    vertex 40.8803647246624 -49.09662291264406 0.9999999999999999
    vertex 40.880364724662435 -68.80150976894106 0.9999999999999999
    vertex 42.188951824063594 -48.83632875477969 0.9999999999999999
  endloop
endfacet
facet normal 7.442131740492116e-05 1.1972826066264901e-05 0.9999999971590596
  outer loop
    vertex 42.188951824063594 -48.83632875477969 0.9999999999999999
    vertex 40.880364724662435 -68.80150976894106 0.9999999999999999
    vertex 42.18895182406362 -69.06180392680542 0.9999999999999999
  endloop
endfacet
facet normal 7.442131740492116e-05 1.1972826066264901e-05 0.9999999971590596
  outer loop
    vertex 42.188951824063594 -48.83632875477969 0.9999999999999999
    vertex 42.18895182406362 -69.06180392680542 0.9999999999999999
    vertex 43.52031898470812 -48.74906634079256 0.9999999999999999
  endloop
endfacet
facet normal 7.442131740492116e-05 1.1972826066264901e-05 0.9999999971590596
  outer loop
    vertex 43.52031898470812 -48.74906634079256 0.9999999999999999
    vertex 42.18895182406362 -69.06180392680542 0.9999999999999999
    vertex 43.52031898470814 -69.14906634079256 0.9999999999999999
  endloop
endfacet
facet normal 7.442131740492116e-05 1.1972826066264901e-05 0.9999999971590596
  outer loop
    vertex 43.52031898470812 -48.74906634079256 0.9999999999999999
    vertex 43.52031898470814 -69.14906634079256 0.9999999999999999
    vertex 44.851686145352645 -48.83632875477969 0.9999999999999999
  endloop
endfacet
facet normal 7.442131740492116e-05 1.1972826066264901e-05 0.9999999971590596
  outer loop
    vertex 44.851686145352645 -48.83632875477969 0.9999999999999999
    vertex 43.52031898470814 -69.14906634079256 0.9999999999999999
    vertex 44.85168614535267 -69.06180392680542 0.9999999999999999
  endloop
endfacet
facet normal 7.442131740492116e-05 1.1972826066264901e-05 0.9999999971590596
  outer loop
    vertex 44.851686145352645 -48.83632875477969 0.9999999999999999
    vertex 44.85168614535267 -69.06180392680542 0.9999999999999999
    vertex 46.16027324475383 -49.096622912644065 0.9999999999999999
  endloop
endfacet
facet normal 7.442131740492116e-05 1.1972826066264901e-05 0.9999999971590596
  outer loop
    vertex 46.16027324475383 -49.096622912644065 0.9999999999999999
    vertex 44.85168614535267 -69.06180392680542 0.9999999999999999
    vertex 46.16027324475385 -68.80150976894106 0.9999999999999999
  endloop
endfacet
facet normal 7.442131740492116e-05 1.1972826066264901e-05 0.9999999971590596
  outer loop
    vertex 46.16027324475383 -49.096622912644065 0.9999999999999999
    vertex 46.16027324475385 -68.80150976894106 0.9999999999999999
    vertex 47.42368999483203 -49.525495109177434 0.9999999999999999
  endloop
endfacet
facet normal 7.442131740492116e-05 1.1972826066264901e-05 0.9999999971590596
  outer loop
    vertex 47.42368999483203 -49.525495109177434 0.9999999999999999
    vertex 46.16027324475385 -68.80150976894106 0.9999999999999999
    vertex 47.42368999483205 -68.37263757240768 0.9999999999999999
  endloop
endfacet
facet normal 7.442131740492116e-05 1.1972826066264901e-05 0.9999999971590596
  outer loop
    vertex 47.42368999483203 -49.525495109177434 0.9999999999999999
    vertex 47.42368999483205 -68.37263757240768 0.9999999999999999
    vertex 48.62031898470811 -50.11560722219129 0.9999999999999999
  endloop
endfacet
facet normal 7.442131740492116e-05 1.1972826066264901e-05 0.9999999971590596
  outer loop
    vertex 48.62031898470811 -50.11560722219129 0.9999999999999999
    vertex 47.42368999483205 -68.37263757240768 0.9999999999999999
    vertex 48.620318984708135 -67.78252545939381 0.9999999999999999
  endloop
endfacet
facet normal 7.442131740492116e-05 1.1972826066264901e-05 0.9999999971590596
  outer loop
    vertex 48.62031898470811 -50.11560722219129 0.9999999999999999
    vertex 48.620318984708135 -67.78252545939381 0.9999999999999999
    vertex 49.72968556059707 -50.85686226982196 0.9999999999999999
  endloop
endfacet
facet normal 7.442131740492116e-05 1.1972826066264901e-05 0.9999999971590596
  outer loop
    vertex 49.72968556059707 -50.85686226982196 0.9999999999999999
    vertex 48.620318984708135 -67.78252545939381 0.9999999999999999
    vertex 49.72968556059708 -67.04127041176314 0.9999999999999999
  endloop
endfacet
facet normal 7.442131740492116e-05 1.1972826066264901e-05 0.9999999971590596
  outer loop
    vertex 49.72968556059707 -50.85686226982196 0.9999999999999999
    vertex 49.72968556059708 -67.04127041176314 0.9999999999999999
    vertex 50.7328081528109 -51.73657717268977 0.9999999999999999
  endloop
endfacet
facet normal 7.442131740492116e-05 1.1972826066264901e-05 0.9999999971590596
  outer loop
    vertex 50.7328081528109 -51.73657717268977 0.9999999999999999
    vertex 49.72968556059708 -67.04127041176314 0.9999999999999999
    vertex 50.73280815281092 -66.16155550889533 0.9999999999999999
  endloop
endfacet
facet normal 7.442131740492116e-05 1.1972826066264901e-05 0.9999999971590596
  outer loop
    vertex 50.7328081528109 -51.73657717268977 0.9999999999999999
    vertex 50.73280815281092 -66.16155550889533 0.9999999999999999
    vertex 51.612523055678714 -52.739699764903605 0.9999999999999999
  endloop
endfacet
facet normal 7.442131740492116e-05 1.1972826066264901e-05 0.9999999971590596
  outer loop
    vertex 51.612523055678714 -52.739699764903605 0.9999999999999999
    vertex 50.73280815281092 -66.16155550889533 0.9999999999999999
    vertex 51.61252305567873 -65.15843291668149 0.9999999999999999
  endloop
endfacet
facet normal 7.442131740492116e-05 1.1972826066264901e-05 0.9999999971590596
  outer loop
    vertex 51.612523055678714 -52.739699764903605 0.9999999999999999
    vertex 51.61252305567873 -65.15843291668149 0.9999999999999999
    vertex 52.35377810330939 -53.849066340792554 0.9999999999999999
  endloop
endfacet
facet normal 7.442131740492116e-05 1.1972826066264901e-05 0.9999999971590596
  outer loop
    vertex 52.35377810330939 -53.849066340792554 0.9999999999999999
    vertex 51.61252305567873 -65.15843291668149 0.9999999999999999
    vertex 52.35377810330939 -64.04906634079255 0.9999999999999999
  endloop
endfacet
facet normal 7.442131740492116e-05 1.1972826066264901e-05 0.9999999971590596
  outer loop
    vertex 52.35377810330939 -53.849066340792554 0.9999999999999999
    vertex 52.35377810330939 -64.04906634079255 0.9999999999999999
    vertex 52.94389021632325 -55.045695330668636 0.9999999999999999
  endloop
endfacet
facet normal 7.442131740492116e-05 1.1972826066264901e-05 0.9999999971590596
  outer loop
    vertex 52.94389021632325 -55.045695330668636 0.9999999999999999
    vertex 52.35377810330939 -64.04906634079255 0.9999999999999999
    vertex 52.94389021632325 -62.85243735091647 0.9999999999999999
  endloop
endfacet
facet normal 7.442131740492116e-05 1.1972826066264901e-05 0.9999999971590596
  outer loop
    vertex 52.94389021632325 -55.045695330668636 0.9999999999999999
    vertex 52.94389021632325 -62.85243735091647 0.9999999999999999
    vertex 53.372762412856616 -56.30911208074684 0.9999999999999999
  endloop
endfacet
facet normal 7.442131740492116e-05 1.1972826066264901e-05 0.9999999971590596
  outer loop
    vertex 53.372762412856616 -56.30911208074684 0.9999999999999999
    vertex 52.94389021632325 -62.85243735091647 0.9999999999999999
    vertex 53.372762412856616 -61.58902060083825 0.9999999999999999
  endloop
endfacet
facet normal 7.442131740492116e-05 1.1972826066264901e-05 0.9999999971590596
  outer loop
    vertex 53.372762412856616 -56.30911208074684 0.9999999999999999
    vertex 53.372762412856616 -61.58902060083825 0.9999999999999999
    vertex 53.63305657072099 -57.61769918014803 0.9999999999999999
  endloop
endfacet
facet normal 7.442131740492116e-05 1.1972826066264901e-05 0.9999999971590596
  outer loop
    vertex 53.63305657072099 -57.61769918014803 0.9999999999999999
    vertex 53.372762412856616 -61.58902060083825 0.9999999999999999
    vertex 53.63305657072099 -60.280433501437074 0.9999999999999999
  endloop
endfacet
facet normal 7.442131740492116e-05 1.1972826066264901e-05 0.9999999971590596
  outer loop
    vertex 53.63305657072099 -57.61769918014803 0.9999999999999999
    vertex 53.63305657072099 -60.280433501437074 0.9999999999999999
    vertex 53.72031898470812 -58.94906634079255 0.9999999999999999
  endloop
endfacet
facet normal 7.442131740492116e-05 1.1972826066264901e-05 0.9999999971590596
  outer loop
    vertex 32.320318984708116 -60.25920924624894 1.0000000000000002
    vertex 29.820318984708116 -33.14906634079256 1.0000000000000002
    vertex 29.820318984708116 -60.25920924624895 1.0000000000000002
  endloop
endfacet
facet normal 7.442131740492116e-05 1.1972826066264901e-05 0.9999999971590596
  outer loop
    vertex 29.820318984708116 -33.14906634079256 1.0000000000000002
    vertex 32.320318984708116 -60.25920924624894 1.0000000000000002
    vertex 32.320318984708116 -35.64906634079256 1.0000000000000002
  endloop
endfacet
facet normal 7.442131740492116e-05 1.1972826066264901e-05 0.9999999971590596
  outer loop
    vertex 29.820318984708116 -33.14906634079256 1.0000000000000002
    vertex 32.320318984708116 -35.64906634079256 1.0000000000000002
    vertex 58.820318984708116 -33.14906634079256 1.0
  endloop
endfacet
facet normal 7.442131740492116e-05 1.1972826066264901e-05 0.9999999971590596
  outer loop
    vertex 32.320318984708116 -35.64906634079256 1.0000000000000002
    vertex 32.320318984708116 -60.25920924624894 1.0000000000000002
    vertex 32.320318984708116 -57.75920924624894 1.0133600000000007
  endloop
endfacet
facet normal 7.442131740492116e-05 1.1972826066264901e-05 0.9999999971590596
  outer loop
    vertex 58.820318984708116 -33.14906634079256 1.0
    vertex 32.320318984708116 -35.64906634079256 1.0000000000000002
    vertex 33.320318984708116 -35.649066340792565 1.0000000000000002
  endloop
endfacet
facet normal 7.442131740492116e-05 1.1972826066264901e-05 0.9999999971590596
  outer loop
    vertex 58.820318984708116 -33.14906634079256 1.0
    vertex 33.320318984708116 -35.649066340792565 1.0000000000000002
    vertex 35.42811491373752 -48.14906634079256 1.0
  endloop
endfacet
facet normal 7.442131740492116e-05 1.1972826066264901e-05 0.9999999971590596
  outer loop
    vertex 35.42811491373752 -48.14906634079256 1.0
    vertex 33.320318984708116 -35.649066340792565 1.0000000000000002
    vertex 33.40758139869525 -60.28043350143713 0.9999999999999999
  endloop
endfacet
facet normal 7.442131740492116e-05 1.1972826066264901e-05 0.9999999971590596
  outer loop
    vertex 35.42811491373752 -48.14906634079256 1.0
    vertex 33.40758139869525 -60.28043350143713 0.9999999999999999
    vertex 33.66787555655963 -61.58902060083831 0.9999999999999999
  endloop
endfacet
facet normal 7.442131740492116e-05 1.1972826066264901e-05 0.9999999971590596
  outer loop
    vertex 35.42811491373752 -48.14906634079256 1.0
    vertex 33.66787555655963 -61.58902060083831 0.9999999999999999
    vertex 34.096747753093005 -62.85243735091651 0.9999999999999999
  endloop
endfacet
facet normal 7.442131740492116e-05 1.1972826066264901e-05 0.9999999971590596
  outer loop
    vertex 35.42811491373752 -48.14906634079256 1.0
    vertex 34.096747753093005 -62.85243735091651 0.9999999999999999
    vertex 34.68685986610686 -64.04906634079259 0.9999999999999999
  endloop
endfacet
facet normal 7.442131740492116e-05 1.1972826066264901e-05 0.9999999971590596
  outer loop
    vertex 35.42811491373752 -48.14906634079256 1.0
    vertex 34.68685986610686 -64.04906634079259 0.9999999999999999
    vertex 35.42811491373752 -52.739699764903605 0.9999999999999999
  endloop
endfacet
facet normal 7.442131740492116e-05 1.1972826066264901e-05 0.9999999971590596
  outer loop
    vertex 58.820318984708116 -33.14906634079256 1.0
    vertex 35.42811491373752 -48.14906634079256 1.0
    vertex 58.820318984708116 -48.14906634079256 1.0
  endloop
endfacet
facet normal -1.0 0.0 0.0
  outer loop
    vertex 58.820318984708116 -33.14906634079256 4.5
    vertex 58.820318984708116 -48.14906634079256 1.0
    vertex 58.820318984708116 -48.14906634079256 4.5
  endloop
endfacet
facet normal -1.0 0.0 0.0
  outer loop
    vertex 58.820318984708116 -48.14906634079256 1.0
    vertex 58.820318984708116 -33.14906634079256 4.5
    vertex 58.820318984708116 -33.14906634079256 1.0
  endloop
endfacet
facet normal 0.0 -1.0 0.0
  outer loop
    vertex 58.820318984708116 -33.14906634079256 4.5
    vertex 29.820318984708116 -33.14906634079256 1.0000000000000002
    vertex 58.820318984708116 -33.14906634079256 1.0
  endloop
endfacet
facet normal 0.0 -1.0 0.0
  outer loop
    vertex 29.820318984708116 -33.14906634079256 1.0000000000000002
    vertex 58.820318984708116 -33.14906634079256 4.5
    vertex 29.820318984708116 -33.14906634079256 4.5
  endloop
endfacet
facet normal 0.0 1.0 0.0
  outer loop
    vertex 35.42811491373752 -48.14906634079256 4.5
    vertex 58.820318984708116 -48.14906634079256 1.0
    vertex 35.42811491373752 -48.14906634079256 1.0
  endloop
endfacet
facet normal 0.0 1.0 0.0
  outer loop
    vertex 58.820318984708116 -48.14906634079256 1.0
    vertex 35.42811491373752 -48.14906634079256 4.5
    vertex 58.820318984708116 -48.14906634079256 4.5
  endloop
endfacet
facet normal 1.0 -9.565631805070721e-17 2.0365997427444327e-32
  outer loop
    vertex 33.320318984708116 -35.649066340792565 1.0000000000000002
    vertex 33.320318984708116 -57.75920924624894 4.5
    vertex 33.320318984708116 -57.75920924624894 1.0133600000000007
  endloop
endfacet
facet normal 1.0 -9.565631805070721e-17 2.0365997427444327e-32
  outer loop
    vertex 33.320318984708116 -57.75920924624894 4.5
    vertex 33.320318984708116 -35.649066340792565 1.0000000000000002
    vertex 33.320318984708116 -35.649066340792565 4.5
  endloop
endfacet
facet normal 0.5555702330195988 0.8314696123025475 0.0
  outer loop
    vertex 37.3109524088192 -67.0412704117632 4.5
    vertex 38.420318984708146 -67.78252545939385 0.9999999999999999
    vertex 37.3109524088192 -67.0412704117632 0.9999999999999999
  endloop
endfacet
facet normal 0.5555702330195988 0.8314696123025475 0.0
  outer loop
    vertex 38.420318984708146 -67.78252545939385 0.9999999999999999
    vertex 37.3109524088192 -67.0412704117632 4.5
    vertex 38.420318984708146 -67.78252545939385 4.5
  endloop
endfacet
facet normal 5.994398161333268e-18 3.9132006634170685e-18 -1.0
  outer loop
    vertex 61.32031898470812 -31.149066340792558 0.0
    vertex 28.82031898470812 -64.14906634079256 -3.524958103184872e-16
    vertex 28.82031898470812 -31.149066340792558 0.0
  endloop
endfacet
facet normal 5.994398161333268e-18 3.9132006634170685e-18 -1.0
  outer loop
    vertex 28.82031898470812 -64.14906634079256 -3.524958103184872e-16
    vertex 61.32031898470812 -31.149066340792558 0.0
    vertex 31.82031898470812 -64.14906634079256 -3.524958103184872e-16
  endloop
endfacet
facet normal 5.994398161333268e-18 3.9132006634170685e-18 -1.0
  outer loop
    vertex 31.82031898470812 -64.14906634079256 -3.524958103184872e-16
    vertex 61.32031898470812 -31.149066340792558 0.0
    vertex 31.82031898470812 -69.14906634079256 -3.524958103184872e-16
  endloop
endfacet
facet normal 5.994398161333268e-18 3.9132006634170685e-18 -1.0
  outer loop
    vertex 31.82031898470812 -69.14906634079256 -3.524958103184872e-16
    vertex 61.32031898470812 -31.149066340792558 0.0
    vertex 58.320318984708116 -50.14906634079256 0.0
  endloop
endfacet
facet normal 5.994398161333268e-18 3.9132006634170685e-18 -1.0
  outer loop
    vertex 58.320318984708116 -50.14906634079256 0.0
    vertex 61.32031898470812 -31.149066340792558 0.0
    vertex 61.32031898470812 -50.14906634079256 0.0
  endloop
endfacet
facet normal 5.994398161333268e-18 3.9132006634170685e-18 -1.0
  outer loop
    vertex 31.82031898470812 -69.14906634079256 -3.524958103184872e-16
    vertex 28.82031898470812 -71.14906634079256 0.0
    vertex 28.82031898470812 -69.14906634079256 -3.524958103184872e-16
  endloop
endfacet
facet normal 5.994398161333268e-18 3.9132006634170685e-18 -1.0
  outer loop
    vertex 28.82031898470812 -71.14906634079256 0.0
    vertex 31.82031898470812 -69.14906634079256 -3.524958103184872e-16
    vertex 61.32031898470812 -71.14906634079256 0.0
  endloop
endfacet
facet normal 5.994398161333268e-18 3.9132006634170685e-18 -1.0
  outer loop
    vertex 61.32031898470812 -71.14906634079256 0.0
    vertex 31.82031898470812 -69.14906634079256 -3.524958103184872e-16
    vertex 58.320318984708116 -55.14906634079255 0.0
  endloop
endfacet
facet normal 5.994398161333268e-18 3.9132006634170685e-18 -1.0
  outer loop
    vertex 58.320318984708116 -55.14906634079255 0.0
    vertex 31.82031898470812 -69.14906634079256 -3.524958103184872e-16
    vertex 58.320318984708116 -50.14906634079256 0.0
  endloop
endfacet
facet normal 5.994398161333268e-18 3.9132006634170685e-18 -1.0
  outer loop
    vertex 61.32031898470812 -71.14906634079256 0.0
    vertex 58.320318984708116 -55.14906634079255 0.0
    vertex 61.32031898470812 -55.14906634079255 0.0
  endloop
endfacet
facet normal 0.44228869021899914 0.8968727415326895 0.0
  outer loop
    vertex 38.420318984708146 -67.78252545939385 4.5
    vertex 39.61694797458423 -68.3726375724077 0.9999999999999999
    vertex 38.420318984708146 -67.78252545939385 0.9999999999999999
  endloop
endfacet
facet normal 0.44228869021899914 0.8968727415326895 0.0
  outer loop
    vertex 39.61694797458423 -68.3726375724077 0.9999999999999999
    vertex 38.420318984708146 -67.78252545939385 4.5
    vertex 39.61694797458423 -68.3726375724077 4.5
  endloop
endfacet
facet normal 0.06540312923014022 0.9978589232386038 0.0
  outer loop
    vertex 42.18895182406362 -69.06180392680542 4.5
    vertex 43.52031898470814 -69.14906634079256 0.9999999999999999
    vertex 42.18895182406362 -69.06180392680542 0.9999999999999999
  endloop
endfacet
facet normal 0.06540312923014022 0.9978589232386038 0.0
  outer loop
    vertex 43.52031898470814 -69.14906634079256 0.9999999999999999
    vertex 42.18895182406362 -69.06180392680542 4.5
    vertex 43.52031898470814 -69.14906634079256 4.5
  endloop
endfacet
facet normal 0.19509032201612572 0.980785280403231 0.0
  outer loop
    vertex 40.880364724662435 -68.80150976894106 4.5
    vertex 42.18895182406362 -69.06180392680542 0.9999999999999999
    vertex 40.880364724662435 -68.80150976894106 0.9999999999999999
  endloop
endfacet
facet normal 0.19509032201612572 0.980785280403231 0.0
  outer loop
    vertex 42.18895182406362 -69.06180392680542 0.9999999999999999
    vertex 40.880364724662435 -68.80150976894106 4.5
    vertex 42.18895182406362 -69.06180392680542 4.5
  endloop
endfacet
facet normal 0.3214394653031572 0.9469301294951071 0.0
  outer loop
    vertex 39.61694797458423 -68.3726375724077 4.5
    vertex 40.880364724662435 -68.80150976894106 0.9999999999999999
    vertex 39.61694797458423 -68.3726375724077 0.9999999999999999
  endloop
endfacet
facet normal 0.3214394653031572 0.9469301294951071 0.0
  outer loop
    vertex 40.880364724662435 -68.80150976894106 0.9999999999999999
    vertex 39.61694797458423 -68.3726375724077 4.5
    vertex 40.880364724662435 -68.80150976894106 4.5
  endloop
endfacet
facet normal -0.9978589232386037 0.06540312923014133 0.0
  outer loop
    vertex 53.72031898470812 -58.94906634079255 4.5
    vertex 53.63305657072099 -60.280433501437074 0.9999999999999999
    vertex 53.63305657072099 -60.280433501437074 4.5
  endloop
endfacet
facet normal -0.9978589232386037 0.06540312923014133 0.0
  outer loop
    vertex 53.63305657072099 -60.280433501437074 0.9999999999999999
    vertex 53.72031898470812 -58.94906634079255 4.5
    vertex 53.72031898470812 -58.94906634079255 0.9999999999999999
  endloop
endfacet
facet normal -0.44228869021900463 0.8968727415326867 0.0
  outer loop
    vertex 47.42368999483205 -68.37263757240768 4.5
    vertex 48.620318984708135 -67.78252545939381 0.9999999999999999
    vertex 47.42368999483205 -68.37263757240768 0.9999999999999999
  endloop
endfacet
facet normal -0.44228869021900463 0.8968727415326867 0.0
  outer loop
    vertex 48.620318984708135 -67.78252545939381 0.9999999999999999
    vertex 47.42368999483205 -68.37263757240768 4.5
    vertex 48.620318984708135 -67.78252545939381 4.5
  endloop
endfacet
facet normal 0.5555702330196026 -0.8314696123025451 0.0
  outer loop
    vertex 38.42031898470811 -50.11560722219129 4.5
    vertex 37.31095240881916 -50.85686226982196 0.9999999999999999
    vertex 38.42031898470811 -50.11560722219129 0.9999999999999999
  endloop
endfacet
facet normal 0.5555702330196026 -0.8314696123025451 0.0
  outer loop
    vertex 37.31095240881916 -50.85686226982196 0.9999999999999999
    vertex 38.42031898470811 -50.11560722219129 4.5
    vertex 37.31095240881916 -50.85686226982196 4.5
  endloop
endfacet
facet normal -0.6593458151000703 -0.7518398074789764 -0.0
  outer loop
    vertex 50.7328081528109 -51.73657717268977 4.5
    vertex 49.72968556059707 -50.85686226982196 0.9999999999999999
    vertex 50.7328081528109 -51.73657717268977 0.9999999999999999
  endloop
endfacet
facet normal -0.6593458151000703 -0.7518398074789764 -0.0
  outer loop
    vertex 49.72968556059707 -50.85686226982196 0.9999999999999999
    vertex 50.7328081528109 -51.73657717268977 4.5
    vertex 49.72968556059707 -50.85686226982196 4.5
  endloop
endfacet
facet normal 0.7518398074789768 -0.6593458151000696 7.529824731243226e-18
  outer loop
    vertex 36.30782981660533 -51.73657717268977 0.9999999999999999
    vertex 35.42811491373752 -52.739699764903605 4.5
    vertex 35.42811491373752 -52.739699764903605 0.9999999999999999
  endloop
endfacet
facet normal 0.7518398074789768 -0.6593458151000696 7.529824731243226e-18
  outer loop
    vertex 35.42811491373752 -52.739699764903605 4.5
    vertex 36.30782981660533 -51.73657717268977 0.9999999999999999
    vertex 36.30782981660533 -51.73657717268977 4.5
  endloop
endfacet
facet normal -0.06540312923014555 0.9978589232386035 0.0
  outer loop
    vertex 43.52031898470814 -69.14906634079256 4.5
    vertex 44.85168614535267 -69.06180392680542 0.9999999999999999
    vertex 43.52031898470814 -69.14906634079256 0.9999999999999999
  endloop
endfacet
facet normal -0.06540312923014555 0.9978589232386035 0.0
  outer loop
    vertex 44.85168614535267 -69.06180392680542 0.9999999999999999
    vertex 43.52031898470814 -69.14906634079256 4.5
    vertex 44.85168614535267 -69.06180392680542 4.5
  endloop
endfacet
facet normal -0.9469301294951062 0.32143946530316003 0.0
  outer loop
    vertex 53.372762412856616 -61.58902060083825 4.5
    vertex 52.94389021632325 -62.85243735091647 0.9999999999999999
    vertex 52.94389021632325 -62.85243735091647 4.5
  endloop
endfacet
facet normal -0.9469301294951062 0.32143946530316003 0.0
  outer loop
    vertex 52.94389021632325 -62.85243735091647 0.9999999999999999
    vertex 53.372762412856616 -61.58902060083825 4.5
    vertex 53.372762412856616 -61.58902060083825 0.9999999999999999
  endloop
endfacet
facet normal -0.5555702330196028 -0.8314696123025449 -0.0
  outer loop
    vertex 49.72968556059707 -50.85686226982196 4.5
    vertex 48.62031898470811 -50.11560722219129 0.9999999999999999
    vertex 49.72968556059707 -50.85686226982196 0.9999999999999999
  endloop
endfacet
facet normal -0.5555702330196028 -0.8314696123025449 -0.0
  outer loop
    vertex 48.62031898470811 -50.11560722219129 0.9999999999999999
    vertex 49.72968556059707 -50.85686226982196 4.5
    vertex 48.62031898470811 -50.11560722219129 4.5
  endloop
endfacet
facet normal -0.9807852804032303 0.19509032201612897 0.0
  outer loop
    vertex 53.63305657072099 -60.280433501437074 4.5
    vertex 53.372762412856616 -61.58902060083825 0.9999999999999999
    vertex 53.372762412856616 -61.58902060083825 4.5
  endloop
endfacet
facet normal -0.9807852804032303 0.19509032201612897 0.0
  outer loop
    vertex 53.372762412856616 -61.58902060083825 0.9999999999999999
    vertex 53.63305657072099 -60.280433501437074 4.5
    vertex 53.63305657072099 -60.280433501437074 0.9999999999999999
  endloop
endfacet
facet normal -0.19509032201613102 0.98078528040323 0.0
  outer loop
    vertex 44.85168614535267 -69.06180392680542 4.5
    vertex 46.16027324475385 -68.80150976894106 0.9999999999999999
    vertex 44.85168614535267 -69.06180392680542 0.9999999999999999
  endloop
endfacet
facet normal -0.19509032201613102 0.98078528040323 0.0
  outer loop
    vertex 46.16027324475385 -68.80150976894106 0.9999999999999999
    vertex 44.85168614535267 -69.06180392680542 4.5
    vertex 46.16027324475385 -68.80150976894106 4.5
  endloop
endfacet
facet normal -0.7518398074789786 0.6593458151000677 0.0
  outer loop
    vertex 51.61252305567873 -65.15843291668149 4.5
    vertex 50.73280815281092 -66.16155550889533 0.9999999999999999
    vertex 50.73280815281092 -66.16155550889533 4.5
  endloop
endfacet
facet normal -0.7518398074789786 0.6593458151000677 0.0
  outer loop
    vertex 50.73280815281092 -66.16155550889533 0.9999999999999999
    vertex 51.61252305567873 -65.15843291668149 4.5
    vertex 51.61252305567873 -65.15843291668149 0.9999999999999999
  endloop
endfacet
facet normal -0.8314696123025463 0.5555702330196006 0.0
  outer loop
    vertex 52.35377810330939 -64.04906634079255 4.5
    vertex 51.61252305567873 -65.15843291668149 0.9999999999999999
    vertex 51.61252305567873 -65.15843291668149 4.5
  endloop
endfacet
facet normal -0.8314696123025463 0.5555702330196006 0.0
  outer loop
    vertex 51.61252305567873 -65.15843291668149 0.9999999999999999
    vertex 52.35377810330939 -64.04906634079255 4.5
    vertex 52.35377810330939 -64.04906634079255 0.9999999999999999
  endloop
endfacet
facet normal -0.32143946530316353 0.946930129495105 0.0
  outer loop
    vertex 46.16027324475385 -68.80150976894106 4.5
    vertex 47.42368999483205 -68.37263757240768 0.9999999999999999
    vertex 46.16027324475385 -68.80150976894106 0.9999999999999999
  endloop
endfacet
facet normal -0.32143946530316353 0.946930129495105 0.0
  outer loop
    vertex 47.42368999483205 -68.37263757240768 0.9999999999999999
    vertex 46.16027324475385 -68.80150976894106 4.5
    vertex 47.42368999483205 -68.37263757240768 4.5
  endloop
endfacet
facet normal -0.9807852804032304 -0.19509032201612858 -0.0
  outer loop
    vertex 53.372762412856616 -56.30911208074684 4.5
    vertex 53.63305657072099 -57.61769918014803 0.9999999999999999
    vertex 53.63305657072099 -57.61769918014803 4.5
  endloop
endfacet
facet normal -0.9807852804032304 -0.19509032201612858 -0.0
  outer loop
    vertex 53.63305657072099 -57.61769918014803 0.9999999999999999
    vertex 53.372762412856616 -56.30911208074684 4.5
    vertex 53.372762412856616 -56.30911208074684 0.9999999999999999
  endloop
endfacet
facet normal -0.3214394653031619 -0.9469301294951056 -0.0
  outer loop
    vertex 47.42368999483203 -49.525495109177434 4.5
    vertex 46.16027324475383 -49.096622912644065 0.9999999999999999
    vertex 47.42368999483203 -49.525495109177434 0.9999999999999999
  endloop
endfacet
facet normal -0.3214394653031619 -0.9469301294951056 -0.0
  outer loop
    vertex 46.16027324475383 -49.096622912644065 0.9999999999999999
    vertex 47.42368999483203 -49.525495109177434 4.5
    vertex 46.16027324475383 -49.096622912644065 4.5
  endloop
endfacet
facet normal 0.6593458151000702 -0.7518398074789765 0.0
  outer loop
    vertex 37.31095240881916 -50.85686226982196 4.5
    vertex 36.30782981660533 -51.73657717268977 0.9999999999999999
    vertex 37.31095240881916 -50.85686226982196 0.9999999999999999
  endloop
endfacet
facet normal 0.6593458151000702 -0.7518398074789765 0.0
  outer loop
    vertex 36.30782981660533 -51.73657717268977 0.9999999999999999
    vertex 37.31095240881916 -50.85686226982196 4.5
    vertex 36.30782981660533 -51.73657717268977 4.5
  endloop
endfacet
facet normal 0.06540312923014541 -0.9978589232386034 0.0
  outer loop
    vertex 43.52031898470812 -48.74906634079256 4.5
    vertex 42.188951824063594 -48.83632875477969 0.9999999999999999
    vertex 43.52031898470812 -48.74906634079256 0.9999999999999999
  endloop
endfacet
facet normal 0.06540312923014541 -0.9978589232386034 0.0
  outer loop
    vertex 42.188951824063594 -48.83632875477969 0.9999999999999999
    vertex 43.52031898470812 -48.74906634079256 4.5
    vertex 42.188951824063594 -48.83632875477969 4.5
  endloop
endfacet
facet normal -0.06540312923014541 -0.9978589232386034 -0.0
  outer loop
    vertex 44.851686145352645 -48.83632875477969 4.5
    vertex 43.52031898470812 -48.74906634079256 0.9999999999999999
    vertex 44.851686145352645 -48.83632875477969 0.9999999999999999
  endloop
endfacet
facet normal -0.06540312923014541 -0.9978589232386034 -0.0
  outer loop
    vertex 43.52031898470812 -48.74906634079256 0.9999999999999999
    vertex 44.851686145352645 -48.83632875477969 4.5
    vertex 43.52031898470812 -48.74906634079256 4.5
  endloop
endfacet
facet normal -0.8968727415326885 -0.44228869021900125 -0.0
  outer loop
    vertex 52.35377810330939 -53.849066340792554 4.5
    vertex 52.94389021632325 -55.045695330668636 0.9999999999999999
    vertex 52.94389021632325 -55.045695330668636 4.5
  endloop
endfacet
facet normal -0.8968727415326885 -0.44228869021900125 -0.0
  outer loop
    vertex 52.94389021632325 -55.045695330668636 0.9999999999999999
    vertex 52.35377810330939 -53.849066340792554 4.5
    vertex 52.35377810330939 -53.849066340792554 0.9999999999999999
  endloop
endfacet
facet normal -0.8314696123025458 -0.5555702330196013 -0.0
  outer loop
    vertex 51.612523055678714 -52.739699764903605 4.5
    vertex 52.35377810330939 -53.849066340792554 0.9999999999999999
    vertex 52.35377810330939 -53.849066340792554 4.5
  endloop
endfacet
facet normal -0.8314696123025458 -0.5555702330196013 -0.0
  outer loop
    vertex 52.35377810330939 -53.849066340792554 0.9999999999999999
    vertex 51.612523055678714 -52.739699764903605 4.5
    vertex 51.612523055678714 -52.739699764903605 0.9999999999999999
  endloop
endfacet
facet normal -0.6593458151000708 0.7518398074789758 0.0
  outer loop
    vertex 49.72968556059708 -67.04127041176314 4.5
    vertex 50.73280815281092 -66.16155550889533 0.9999999999999999
    vertex 49.72968556059708 -67.04127041176314 0.9999999999999999
  endloop
endfacet
facet normal -0.6593458151000708 0.7518398074789758 0.0
  outer loop
    vertex 50.73280815281092 -66.16155550889533 0.9999999999999999
    vertex 49.72968556059708 -67.04127041176314 4.5
    vertex 50.73280815281092 -66.16155550889533 4.5
  endloop
endfacet
facet normal -0.8968727415326893 0.4422886902189996 0.0
  outer loop
    vertex 52.94389021632325 -62.85243735091647 4.5
    vertex 52.35377810330939 -64.04906634079255 0.9999999999999999
    vertex 52.35377810330939 -64.04906634079255 4.5
  endloop
endfacet
facet normal -0.8968727415326893 0.4422886902189996 0.0
  outer loop
    vertex 52.35377810330939 -64.04906634079255 0.9999999999999999
    vertex 52.94389021632325 -62.85243735091647 4.5
    vertex 52.94389021632325 -62.85243735091647 0.9999999999999999
  endloop
endfacet
facet normal -0.9469301294951054 -0.3214394653031626 -0.0
  outer loop
    vertex 52.94389021632325 -55.045695330668636 4.5
    vertex 53.372762412856616 -56.30911208074684 0.9999999999999999
    vertex 53.372762412856616 -56.30911208074684 4.5
  endloop
endfacet
facet normal -0.9469301294951054 -0.3214394653031626 -0.0
  outer loop
    vertex 53.372762412856616 -56.30911208074684 0.9999999999999999
    vertex 52.94389021632325 -55.045695330668636 4.5
    vertex 52.94389021632325 -55.045695330668636 0.9999999999999999
  endloop
endfacet
facet normal -0.7518398074789752 -0.6593458151000714 -0.0
  outer loop
    vertex 50.7328081528109 -51.73657717268977 4.5
    vertex 51.612523055678714 -52.739699764903605 0.9999999999999999
    vertex 51.612523055678714 -52.739699764903605 4.5
  endloop
endfacet
facet normal -0.7518398074789752 -0.6593458151000714 -0.0
  outer loop
    vertex 51.612523055678714 -52.739699764903605 0.9999999999999999
    vertex 50.7328081528109 -51.73657717268977 4.5
    vertex 50.7328081528109 -51.73657717268977 0.9999999999999999
  endloop
endfacet
facet normal -0.4422886902189996 -0.8968727415326893 -0.0
  outer loop
    vertex 48.62031898470811 -50.11560722219129 4.5
    vertex 47.42368999483203 -49.525495109177434 0.9999999999999999
    vertex 48.62031898470811 -50.11560722219129 0.9999999999999999
  endloop
endfacet
facet normal -0.4422886902189996 -0.8968727415326893 -0.0
  outer loop
    vertex 47.42368999483203 -49.525495109177434 0.9999999999999999
    vertex 48.62031898470811 -50.11560722219129 4.5
    vertex 47.42368999483203 -49.525495109177434 4.5
  endloop
endfacet
facet normal 0.19509032201612653 -0.9807852804032308 0.0
  outer loop
    vertex 42.188951824063594 -48.83632875477969 4.5
    vertex 40.8803647246624 -49.09662291264406 0.9999999999999999
    vertex 42.188951824063594 -48.83632875477969 0.9999999999999999
  endloop
endfacet
facet normal 0.19509032201612653 -0.9807852804032308 0.0
  outer loop
    vertex 40.8803647246624 -49.09662291264406 0.9999999999999999
    vertex 42.188951824063594 -48.83632875477969 4.5
    vertex 40.8803647246624 -49.09662291264406 4.5
  endloop
endfacet
facet normal 0.44228869021900047 -0.8968727415326889 0.0
  outer loop
    vertex 39.6169479745842 -49.525495109177434 4.5
    vertex 38.42031898470811 -50.11560722219129 0.9999999999999999
    vertex 39.6169479745842 -49.525495109177434 0.9999999999999999
  endloop
endfacet
facet normal 0.44228869021900047 -0.8968727415326889 0.0
  outer loop
    vertex 38.42031898470811 -50.11560722219129 0.9999999999999999
    vertex 39.6169479745842 -49.525495109177434 4.5
    vertex 38.42031898470811 -50.11560722219129 4.5
  endloop
endfacet
facet normal -0.9978589232386035 -0.06540312923014555 -0.0
  outer loop
    vertex 53.63305657072099 -57.61769918014803 4.5
    vertex 53.72031898470812 -58.94906634079255 0.9999999999999999
    vertex 53.72031898470812 -58.94906634079255 4.5
  endloop
endfacet
facet normal -0.9978589232386035 -0.06540312923014555 -0.0
  outer loop
    vertex 53.72031898470812 -58.94906634079255 0.9999999999999999
    vertex 53.63305657072099 -57.61769918014803 4.5
    vertex 53.63305657072099 -57.61769918014803 0.9999999999999999
  endloop
endfacet
facet normal -0.19509032201612858 -0.9807852804032304 -0.0
  outer loop
    vertex 46.16027324475383 -49.096622912644065 4.5
    vertex 44.851686145352645 -48.83632875477969 0.9999999999999999
    vertex 46.16027324475383 -49.096622912644065 0.9999999999999999
  endloop
endfacet
facet normal -0.19509032201612858 -0.9807852804032304 -0.0
  outer loop
    vertex 44.851686145352645 -48.83632875477969 0.9999999999999999
    vertex 46.16027324475383 -49.096622912644065 4.5
    vertex 44.851686145352645 -48.83632875477969 4.5
  endloop
endfacet
facet normal -0.5555702330196028 0.8314696123025449 0.0
  outer loop
    vertex 48.620318984708135 -67.78252545939381 4.5
    vertex 49.72968556059708 -67.04127041176314 0.9999999999999999
    vertex 48.620318984708135 -67.78252545939381 0.9999999999999999
  endloop
endfacet
facet normal -0.5555702330196028 0.8314696123025449 0.0
  outer loop
    vertex 49.72968556059708 -67.04127041176314 0.9999999999999999
    vertex 48.620318984708135 -67.78252545939381 4.5
    vertex 49.72968556059708 -67.04127041176314 4.5
  endloop
endfacet
facet normal 0.3214394653031619 -0.9469301294951056 0.0
  outer loop
    vertex 40.8803647246624 -49.09662291264406 4.5
    vertex 39.6169479745842 -49.525495109177434 0.9999999999999999
    vertex 40.8803647246624 -49.09662291264406 0.9999999999999999
  endloop
endfacet
facet normal 0.3214394653031619 -0.9469301294951056 0.0
  outer loop
    vertex 39.6169479745842 -49.525495109177434 0.9999999999999999
    vertex 40.8803647246624 -49.09662291264406 4.5
    vertex 39.6169479745842 -49.525495109177434 4.5
  endloop
endfacet
facet normal 0.9807852804032298 0.19509032201613224 -7.915303048225018e-33
  outer loop
    vertex 33.40758139869525 -60.28043350143713 0.9999999999999999
    vertex 33.66787555655963 -61.58902060083831 4.5
    vertex 33.66787555655963 -61.58902060083831 0.9999999999999999
  endloop
endfacet
facet normal 0.9807852804032298 0.19509032201613224 -7.915303048225018e-33
  outer loop
    vertex 33.66787555655963 -61.58902060083831 4.5
    vertex 33.40758139869525 -60.28043350143713 0.9999999999999999
    vertex 33.40758139869525 -60.28043350143713 4.5
  endloop
endfacet
facet normal 0.8968727415326864 0.4422886902190055 0.0
  outer loop
    vertex 34.096747753093005 -62.85243735091651 0.9999999999999999
    vertex 34.68685986610686 -64.04906634079259 4.5
    vertex 34.68685986610686 -64.04906634079259 0.9999999999999999
  endloop
endfacet
facet normal 0.8968727415326864 0.4422886902190055 0.0
  outer loop
    vertex 34.68685986610686 -64.04906634079259 4.5
    vertex 34.096747753093005 -62.85243735091651 0.9999999999999999
    vertex 34.096747753093005 -62.85243735091651 4.5
  endloop
endfacet
facet normal 0.8314696123025435 0.5555702330196051 0.0
  outer loop
    vertex 34.68685986610686 -64.04906634079259 0.9999999999999999
    vertex 35.42811491373754 -65.15843291668153 4.5
    vertex 35.42811491373754 -65.15843291668153 0.9999999999999999
  endloop
endfacet
facet normal 0.8314696123025435 0.5555702330196051 0.0
  outer loop
    vertex 35.42811491373754 -65.15843291668153 4.5
    vertex 34.68685986610686 -64.04906634079259 0.9999999999999999
    vertex 34.68685986610686 -64.04906634079259 4.5
  endloop
endfacet
facet normal 0.751839807478974 0.6593458151000728 0.0
  outer loop
    vertex 35.42811491373754 -65.15843291668153 0.9999999999999999
    vertex 36.307829816605356 -66.16155550889538 4.5
    vertex 36.307829816605356 -66.16155550889538 0.9999999999999999
  endloop
endfacet
facet normal 0.751839807478974 0.6593458151000728 0.0
  outer loop
    vertex 36.307829816605356 -66.16155550889538 4.5
    vertex 35.42811491373754 -65.15843291668153 0.9999999999999999
    vertex 35.42811491373754 -65.15843291668153 4.5
  endloop
endfacet
facet normal 0.6593458151000668 0.7518398074789793 0.0
  outer loop
    vertex 36.307829816605356 -66.16155550889538 4.5
    vertex 37.3109524088192 -67.0412704117632 0.9999999999999999
    vertex 36.307829816605356 -66.16155550889538 0.9999999999999999
  endloop
endfacet
facet normal 0.6593458151000668 0.7518398074789793 0.0
  outer loop
    vertex 37.3109524088192 -67.0412704117632 0.9999999999999999
    vertex 36.307829816605356 -66.16155550889538 4.5
    vertex 37.3109524088192 -67.0412704117632 4.5
  endloop
endfacet
facet normal 0.9469301294951044 0.3214394653031654 0.0
  outer loop
    vertex 33.66787555655963 -61.58902060083831 0.9999999999999999
    vertex 34.096747753093005 -62.85243735091651 4.5
    vertex 34.096747753093005 -62.85243735091651 0.9999999999999999
  endloop
endfacet
facet normal 0.9469301294951044 0.3214394653031654 0.0
  outer loop
    vertex 34.096747753093005 -62.85243735091651 4.5
    vertex 33.66787555655963 -61.58902060083831 0.9999999999999999
    vertex 33.66787555655963 -61.58902060083831 4.5
  endloop
endfacet
facet normal 1.0 0.0 0.0
  outer loop
    vertex 61.32031898470812 -31.149066340792558 0.0
    vertex 61.32031898470812 -50.14906634079256 4.5
    vertex 61.32031898470812 -50.14906634079256 0.0
  endloop
endfacet
facet normal 1.0 0.0 0.0
  outer loop
    vertex 61.32031898470812 -50.14906634079256 4.5
    vertex 61.32031898470812 -31.149066340792558 0.0
    vertex 61.32031898470812 -31.149066340792558 4.5
  endloop
endfacet
facet normal 1.0 0.0 0.0
  outer loop
    vertex 58.320318984708116 -50.14906634079256 0.0
    vertex 58.320318984708116 -55.14906634079255 4.5
    vertex 58.320318984708116 -55.14906634079255 0.0
  endloop
endfacet
facet normal 1.0 0.0 0.0
  outer loop
    vertex 58.320318984708116 -55.14906634079255 4.5
    vertex 58.320318984708116 -50.14906634079256 0.0
    vertex 58.320318984708116 -50.14906634079256 4.5
  endloop
endfacet
facet normal 0.0 1.0 0.0
  outer loop
    vertex 58.320318984708116 -55.14906634079255 4.5
    vertex 61.32031898470812 -55.14906634079255 0.0
    vertex 58.320318984708116 -55.14906634079255 0.0
  endloop
endfacet
facet normal 0.0 1.0 0.0
  outer loop
    vertex 61.32031898470812 -55.14906634079255 0.0
    vertex 58.320318984708116 -55.14906634079255 4.5
    vertex 61.32031898470812 -55.14906634079255 4.5
  endloop
endfacet
facet normal 0.0 0.0 1.0
  outer loop
    vertex 61.32031898470812 -71.14906634079256 4.5
    vertex 28.82031898470812 -69.14906634079256 4.5
    vertex 28.82031898470812 -71.14906634079256 4.5
  endloop
endfacet
facet normal 0.0 0.0 1.0
  outer loop
    vertex 28.82031898470812 -69.14906634079256 4.5
    vertex 61.32031898470812 -71.14906634079256 4.5
    vertex 31.82031898470812 -69.14906634079256 4.5
  endloop
endfacet
facet normal 0.0 0.0 1.0
  outer loop
    vertex 31.82031898470812 -69.14906634079256 4.5
    vertex 61.32031898470812 -71.14906634079256 4.5
    vertex 42.18895182406362 -69.06180392680542 4.5
  endloop
endfacet
facet normal 0.0 0.0 1.0
  outer loop
    vertex 31.82031898470812 -69.14906634079256 4.5
    vertex 42.18895182406362 -69.06180392680542 4.5
    vertex 40.880364724662435 -68.80150976894106 4.5
  endloop
endfacet
facet normal 0.0 0.0 1.0
  outer loop
    vertex 31.82031898470812 -69.14906634079256 4.5
    vertex 40.880364724662435 -68.80150976894106 4.5
    vertex 39.61694797458423 -68.3726375724077 4.5
  endloop
endfacet
facet normal 0.0 0.0 1.0
  outer loop
    vertex 31.82031898470812 -69.14906634079256 4.5
    vertex 39.61694797458423 -68.3726375724077 4.5
    vertex 38.420318984708146 -67.78252545939385 4.5
  endloop
endfacet
facet normal 0.0 0.0 1.0
  outer loop
    vertex 31.82031898470812 -69.14906634079256 4.5
    vertex 38.420318984708146 -67.78252545939385 4.5
    vertex 31.82031898470812 -64.14906634079256 4.5
  endloop
endfacet
facet normal 0.0 0.0 1.0
  outer loop
    vertex 31.82031898470812 -64.14906634079256 4.5
    vertex 38.420318984708146 -67.78252545939385 4.5
    vertex 37.3109524088192 -67.0412704117632 4.5
  endloop
endfacet
facet normal 0.0 0.0 1.0
  outer loop
    vertex 31.82031898470812 -64.14906634079256 4.5
    vertex 37.3109524088192 -67.0412704117632 4.5
    vertex 36.307829816605356 -66.16155550889538 4.5
  endloop
endfacet
facet normal 0.0 0.0 1.0
  outer loop
    vertex 31.82031898470812 -64.14906634079256 4.5
    vertex 36.307829816605356 -66.16155550889538 4.5
    vertex 35.42811491373754 -65.15843291668153 4.5
  endloop
endfacet
facet normal 0.0 0.0 1.0
  outer loop
    vertex 31.82031898470812 -64.14906634079256 4.5
    vertex 35.42811491373754 -65.15843291668153 4.5
    vertex 34.68685986610686 -64.04906634079259 4.5
  endloop
endfacet
facet normal 0.0 0.0 1.0
  outer loop
    vertex 31.82031898470812 -64.14906634079256 4.5
    vertex 34.68685986610686 -64.04906634079259 4.5
    vertex 32.320318984708116 -60.25920924624894 4.5
  endloop
endfacet
facet normal 0.0 0.0 1.0
  outer loop
    vertex 32.320318984708116 -60.25920924624894 4.5
    vertex 34.68685986610686 -64.04906634079259 4.5
    vertex 34.096747753093005 -62.85243735091651 4.5
  endloop
endfacet
facet normal 0.0 0.0 1.0
  outer loop
    vertex 32.320318984708116 -60.25920924624894 4.5
    vertex 34.096747753093005 -62.85243735091651 4.5
    vertex 33.66787555655963 -61.58902060083831 4.5
  endloop
endfacet
facet normal 0.0 0.0 1.0
  outer loop
    vertex 32.320318984708116 -60.25920924624894 4.5
    vertex 33.66787555655963 -61.58902060083831 4.5
    vertex 33.40758139869525 -60.28043350143713 4.5
  endloop
endfacet
facet normal 0.0 0.0 1.0
  outer loop
    vertex 42.18895182406362 -69.06180392680542 4.5
    vertex 61.32031898470812 -71.14906634079256 4.5
    vertex 43.52031898470814 -69.14906634079256 4.5
  endloop
endfacet
facet normal 0.0 0.0 1.0
  outer loop
    vertex 43.52031898470814 -69.14906634079256 4.5
    vertex 61.32031898470812 -71.14906634079256 4.5
    vertex 44.85168614535267 -69.06180392680542 4.5
  endloop
endfacet
facet normal 0.0 0.0 1.0
  outer loop
    vertex 44.85168614535267 -69.06180392680542 4.5
    vertex 61.32031898470812 -71.14906634079256 4.5
    vertex 46.16027324475385 -68.80150976894106 4.5
  endloop
endfacet
facet normal 0.0 0.0 1.0
  outer loop
    vertex 46.16027324475385 -68.80150976894106 4.5
    vertex 61.32031898470812 -71.14906634079256 4.5
    vertex 47.42368999483205 -68.37263757240768 4.5
  endloop
endfacet
facet normal 0.0 0.0 1.0
  outer loop
    vertex 47.42368999483205 -68.37263757240768 4.5
    vertex 61.32031898470812 -71.14906634079256 4.5
    vertex 48.620318984708135 -67.78252545939381 4.5
  endloop
endfacet
facet normal 0.0 0.0 1.0
  outer loop
    vertex 48.620318984708135 -67.78252545939381 4.5
    vertex 61.32031898470812 -71.14906634079256 4.5
    vertex 49.72968556059708 -67.04127041176314 4.5
  endloop
endfacet
facet normal 0.0 0.0 1.0
  outer loop
    vertex 49.72968556059708 -67.04127041176314 4.5
    vertex 61.32031898470812 -71.14906634079256 4.5
    vertex 50.73280815281092 -66.16155550889533 4.5
  endloop
endfacet
facet normal 0.0 0.0 1.0
  outer loop
    vertex 50.73280815281092 -66.16155550889533 4.5
    vertex 61.32031898470812 -71.14906634079256 4.5
    vertex 51.61252305567873 -65.15843291668149 4.5
  endloop
endfacet
facet normal 0.0 0.0 1.0
  outer loop
    vertex 51.61252305567873 -65.15843291668149 4.5
    vertex 61.32031898470812 -71.14906634079256 4.5
    vertex 52.35377810330939 -64.04906634079255 4.5
  endloop
endfacet
facet normal 0.0 0.0 1.0
  outer loop
    vertex 52.35377810330939 -64.04906634079255 4.5
    vertex 61.32031898470812 -71.14906634079256 4.5
    vertex 52.94389021632325 -62.85243735091647 4.5
  endloop
endfacet
facet normal 0.0 0.0 1.0
  outer loop
    vertex 52.94389021632325 -62.85243735091647 4.5
    vertex 61.32031898470812 -71.14906634079256 4.5
    vertex 53.372762412856616 -61.58902060083825 4.5
  endloop
endfacet
facet normal 0.0 0.0 1.0
  outer loop
    vertex 53.372762412856616 -61.58902060083825 4.5
    vertex 61.32031898470812 -71.14906634079256 4.5
    vertex 53.63305657072099 -60.280433501437074 4.5
  endloop
endfacet
facet normal 0.0 0.0 1.0
  outer loop
    vertex 53.63305657072099 -60.280433501437074 4.5
    vertex 61.32031898470812 -71.14906634079256 4.5
    vertex 53.72031898470812 -58.94906634079255 4.5
  endloop
endfacet
facet normal 0.0 0.0 1.0
  outer loop
    vertex 53.72031898470812 -58.94906634079255 4.5
    vertex 61.32031898470812 -71.14906634079256 4.5
    vertex 58.320318984708116 -55.14906634079255 4.5
  endloop
endfacet
facet normal 0.0 0.0 1.0
  outer loop
    vertex 58.320318984708116 -55.14906634079255 4.5
    vertex 61.32031898470812 -71.14906634079256 4.5
    vertex 61.32031898470812 -55.14906634079255 4.5
  endloop
endfacet
facet normal 0.0 0.0 1.0
  outer loop
    vertex 36.30782981660533 -51.73657717268977 4.5
    vertex 35.42811491373752 -48.14906634079256 4.5
    vertex 35.42811491373752 -52.739699764903605 4.5
  endloop
endfacet
facet normal 0.0 0.0 1.0
  outer loop
    vertex 35.42811491373752 -48.14906634079256 4.5
    vertex 36.30782981660533 -51.73657717268977 4.5
    vertex 37.31095240881916 -50.85686226982196 4.5
  endloop
endfacet
facet normal 0.0 0.0 1.0
  outer loop
    vertex 35.42811491373752 -48.14906634079256 4.5
    vertex 37.31095240881916 -50.85686226982196 4.5
    vertex 38.42031898470811 -50.11560722219129 4.5
  endloop
endfacet
facet normal 0.0 0.0 1.0
  outer loop
    vertex 35.42811491373752 -48.14906634079256 4.5
    vertex 38.42031898470811 -50.11560722219129 4.5
    vertex 39.6169479745842 -49.525495109177434 4.5
  endloop
endfacet
facet normal 0.0 0.0 1.0
  outer loop
    vertex 35.42811491373752 -48.14906634079256 4.5
    vertex 39.6169479745842 -49.525495109177434 4.5
    vertex 40.8803647246624 -49.09662291264406 4.5
  endloop
endfacet
facet normal 0.0 0.0 1.0
  outer loop
    vertex 35.42811491373752 -48.14906634079256 4.5
    vertex 40.8803647246624 -49.09662291264406 4.5
    vertex 42.188951824063594 -48.83632875477969 4.5
  endloop
endfacet
facet normal 0.0 0.0 1.0
  outer loop
    vertex 35.42811491373752 -48.14906634079256 4.5
    vertex 42.188951824063594 -48.83632875477969 4.5
    vertex 43.52031898470812 -48.74906634079256 4.5
  endloop
endfacet
facet normal 0.0 0.0 1.0
  outer loop
    vertex 35.42811491373752 -48.14906634079256 4.5
    vertex 43.52031898470812 -48.74906634079256 4.5
    vertex 58.820318984708116 -48.14906634079256 4.5
  endloop
endfacet
facet normal 0.0 0.0 1.0
  outer loop
    vertex 58.820318984708116 -48.14906634079256 4.5
    vertex 43.52031898470812 -48.74906634079256 4.5
    vertex 44.851686145352645 -48.83632875477969 4.5
  endloop
endfacet
facet normal 0.0 0.0 1.0
  outer loop
    vertex 58.820318984708116 -48.14906634079256 4.5
    vertex 44.851686145352645 -48.83632875477969 4.5
    vertex 46.16027324475383 -49.096622912644065 4.5
  endloop
endfacet
facet normal 0.0 0.0 1.0
  outer loop
    vertex 58.820318984708116 -48.14906634079256 4.5
    vertex 46.16027324475383 -49.096622912644065 4.5
    vertex 47.42368999483203 -49.525495109177434 4.5
  endloop
endfacet
facet normal 0.0 0.0 1.0
  outer loop
    vertex 58.820318984708116 -48.14906634079256 4.5
    vertex 47.42368999483203 -49.525495109177434 4.5
    vertex 48.62031898470811 -50.11560722219129 4.5
  endloop
endfacet
facet normal 0.0 0.0 1.0
  outer loop
    vertex 58.820318984708116 -48.14906634079256 4.5
    vertex 48.62031898470811 -50.11560722219129 4.5
    vertex 49.72968556059707 -50.85686226982196 4.5
  endloop
endfacet
facet normal 0.0 0.0 1.0
  outer loop
    vertex 58.820318984708116 -48.14906634079256 4.5
    vertex 49.72968556059707 -50.85686226982196 4.5
    vertex 50.7328081528109 -51.73657717268977 4.5
  endloop
endfacet
facet normal 0.0 0.0 1.0
  outer loop
    vertex 58.820318984708116 -48.14906634079256 4.5
    vertex 50.7328081528109 -51.73657717268977 4.5
    vertex 51.612523055678714 -52.739699764903605 4.5
  endloop
endfacet
facet normal 0.0 0.0 1.0
  outer loop
    vertex 58.820318984708116 -48.14906634079256 4.5
    vertex 51.612523055678714 -52.739699764903605 4.5
    vertex 52.35377810330939 -53.849066340792554 4.5
  endloop
endfacet
facet normal 0.0 0.0 1.0
  outer loop
    vertex 58.820318984708116 -48.14906634079256 4.5
    vertex 52.35377810330939 -53.849066340792554 4.5
    vertex 52.94389021632325 -55.045695330668636 4.5
  endloop
endfacet
facet normal 0.0 0.0 1.0
  outer loop
    vertex 58.820318984708116 -48.14906634079256 4.5
    vertex 52.94389021632325 -55.045695330668636 4.5
    vertex 53.372762412856616 -56.30911208074684 4.5
  endloop
endfacet
facet normal 0.0 0.0 1.0
  outer loop
    vertex 58.820318984708116 -48.14906634079256 4.5
    vertex 53.372762412856616 -56.30911208074684 4.5
    vertex 53.63305657072099 -57.61769918014803 4.5
  endloop
endfacet
facet normal 0.0 0.0 1.0
  outer loop
    vertex 58.820318984708116 -48.14906634079256 4.5
    vertex 53.63305657072099 -57.61769918014803 4.5
    vertex 53.72031898470812 -58.94906634079255 4.5
  endloop
endfacet
facet normal 0.0 0.0 1.0
  outer loop
    vertex 58.820318984708116 -48.14906634079256 4.5
    vertex 53.72031898470812 -58.94906634079255 4.5
    vertex 58.320318984708116 -50.14906634079256 4.5
  endloop
endfacet
facet normal 0.0 0.0 1.0
  outer loop
    vertex 58.320318984708116 -50.14906634079256 4.5
    vertex 53.72031898470812 -58.94906634079255 4.5
    vertex 58.320318984708116 -55.14906634079255 4.5
  endloop
endfacet
facet normal 0.0 0.0 1.0
  outer loop
    vertex 58.820318984708116 -48.14906634079256 4.5
    vertex 58.320318984708116 -50.14906634079256 4.5
    vertex 61.32031898470812 -50.14906634079256 4.5
  endloop
endfacet
facet normal 0.0 0.0 1.0
  outer loop
    vertex 58.820318984708116 -48.14906634079256 4.5
    vertex 61.32031898470812 -50.14906634079256 4.5
    vertex 58.820318984708116 -33.14906634079256 4.5
  endloop
endfacet
facet normal 0.0 0.0 1.0
  outer loop
    vertex 28.82031898470812 -31.149066340792558 4.5
    vertex 29.820318984708116 -33.14906634079256 4.5
    vertex 61.32031898470812 -31.149066340792558 4.5
  endloop
endfacet
facet normal 0.0 0.0 1.0
  outer loop
    vertex 29.820318984708116 -33.14906634079256 4.5
    vertex 28.82031898470812 -31.149066340792558 4.5
    vertex 29.820318984708116 -60.25920924624895 4.5
  endloop
endfacet
facet normal 0.0 0.0 1.0
  outer loop
    vertex 61.32031898470812 -31.149066340792558 4.5
    vertex 29.820318984708116 -33.14906634079256 4.5
    vertex 58.820318984708116 -33.14906634079256 4.5
  endloop
endfacet
facet normal 0.0 0.0 1.0
  outer loop
    vertex 61.32031898470812 -31.149066340792558 4.5
    vertex 58.820318984708116 -33.14906634079256 4.5
    vertex 61.32031898470812 -50.14906634079256 4.5
  endloop
endfacet
facet normal 0.0 0.0 1.0
  outer loop
    vertex 28.82031898470812 -64.14906634079256 4.5
    vertex 29.820318984708116 -60.25920924624895 4.5
    vertex 28.82031898470812 -31.149066340792558 4.5
  endloop
endfacet
facet normal 0.0 0.0 1.0
  outer loop
    vertex 29.820318984708116 -60.25920924624895 4.5
    vertex 28.82031898470812 -64.14906634079256 4.5
    vertex 31.82031898470812 -64.14906634079256 4.5
  endloop
endfacet
facet normal 0.0 0.0 1.0
  outer loop
    vertex 29.820318984708116 -60.25920924624895 4.5
    vertex 31.82031898470812 -64.14906634079256 4.5
    vertex 32.320318984708116 -60.25920924624894 4.5
  endloop
endfacet
facet normal 0.0 -1.0 0.0
  outer loop
    vertex 33.320318984708116 -57.75920924624894 4.5
    vertex 32.320318984708116 -57.75920924624894 1.0133600000000007
    vertex 33.320318984708116 -57.75920924624894 1.0133600000000007
  endloop
endfacet
facet normal 0.0 -1.0 0.0
  outer loop
    vertex 32.320318984708116 -57.75920924624894 1.0133600000000007
    vertex 33.320318984708116 -57.75920924624894 4.5
    vertex 32.320318984708116 -57.75920924624894 4.5
  endloop
endfacet
facet normal 0.019517102943232847 0.999809523205647 -1.3392340692474318e-19
  outer loop
    vertex 32.320318984708116 -60.25920924624894 1.0000000000000002
    vertex 33.40758139869525 -60.28043350143713 4.5
    vertex 33.40758139869525 -60.28043350143713 0.9999999999999999
  endloop
endfacet
facet normal 0.019517102943232847 0.999809523205647 -1.3392340692474318e-19
  outer loop
    vertex 33.40758139869525 -60.28043350143713 4.5
    vertex 32.320318984708116 -60.25920924624894 1.0000000000000002
    vertex 32.320318984708116 -60.25920924624894 4.5
  endloop
endfacet
facet normal 0.0020658754564402185 -0.005231329772322804 0.9999841825486101
  outer loop
    vertex 33.320318984708116 -57.75920924624894 1.0133600000000007
    vertex 32.320318984708116 -57.75920924624894 1.0133600000000007
    vertex 33.320318984708116 -58.949066340792555 0.9999999999999999
  endloop
endfacet
facet normal 0.0020658754564402185 -0.005231329772322804 0.9999841825486101
  outer loop
    vertex 33.40758139869525 -60.28043350143713 0.9999999999999999
    vertex 32.320318984708116 -57.75920924624894 1.0133600000000007
    vertex 32.320318984708116 -60.25920924624894 1.0000000000000002
  endloop
endfacet
facet normal 0.0020658754564402185 -0.005231329772322804 0.9999841825486101
  outer loop
    vertex 32.320318984708116 -57.75920924624894 1.0133600000000007
    vertex 33.40758139869525 -60.28043350143713 0.9999999999999999
    vertex 33.320318984708116 -58.949066340792555 0.9999999999999999
  endloop
endfacet
facet normal -1.0 0.0 0.0
  outer loop
    vertex 28.82031898470812 -69.14906634079256 4.5
    vertex 28.82031898470812 -71.14906634079256 0.0
    vertex 28.82031898470812 -71.14906634079256 4.5
  endloop
endfacet
facet normal -1.0 0.0 0.0
  outer loop
    vertex 28.82031898470812 -71.14906634079256 0.0
    vertex 28.82031898470812 -69.14906634079256 4.5
    vertex 28.82031898470812 -69.14906634079256 -3.524958103184872e-16
  endloop
endfacet
facet normal 0.0 1.0 0.0
  outer loop
    vertex 28.82031898470812 -69.14906634079256 4.5
    vertex 31.82031898470812 -69.14906634079256 -3.524958103184872e-16
    vertex 28.82031898470812 -69.14906634079256 -3.524958103184872e-16
  endloop
endfacet
facet normal 0.0 1.0 0.0
  outer loop
    vertex 31.82031898470812 -69.14906634079256 -3.524958103184872e-16
    vertex 28.82031898470812 -69.14906634079256 4.5
    vertex 31.82031898470812 -69.14906634079256 4.5
  endloop
endfacet
facet normal -1.0 0.0 0.0
  outer loop
    vertex 31.82031898470812 -64.14906634079256 4.5
    vertex 31.82031898470812 -69.14906634079256 -3.524958103184872e-16
    vertex 31.82031898470812 -69.14906634079256 4.5
  endloop
endfacet
facet normal -1.0 0.0 0.0
  outer loop
    vertex 31.82031898470812 -69.14906634079256 -3.524958103184872e-16
    vertex 31.82031898470812 -64.14906634079256 4.5
    vertex 31.82031898470812 -64.14906634079256 -3.524958103184872e-16
  endloop
endfacet
facet normal 0.0 -1.0 0.0
  outer loop
    vertex 31.82031898470812 -64.14906634079256 4.5
    vertex 28.82031898470812 -64.14906634079256 -3.524958103184872e-16
    vertex 31.82031898470812 -64.14906634079256 -3.524958103184872e-16
  endloop
endfacet
facet normal 0.0 -1.0 0.0
  outer loop
    vertex 28.82031898470812 -64.14906634079256 -3.524958103184872e-16
    vertex 31.82031898470812 -64.14906634079256 4.5
    vertex 28.82031898470812 -64.14906634079256 4.5
  endloop
endfacet
facet normal 0.0 0.0 1.0
  outer loop
    vertex 33.320318984708116 -57.75920924624894 4.5
    vertex 32.320318984708116 -35.64906634079256 4.5
    vertex 32.320318984708116 -57.75920924624894 4.5
  endloop
endfacet
facet normal 0.0 0.0 1.0
  outer loop
    vertex 32.320318984708116 -35.64906634079256 4.5
    vertex 33.320318984708116 -57.75920924624894 4.5
    vertex 33.320318984708116 -35.649066340792565 4.5
  endloop
endfacet
facet normal -1.0 0.0 0.0
  outer loop
    vertex 35.42811491373752 -48.14906634079256 4.5
    vertex 35.42811491373752 -52.739699764903605 0.9999999999999999
    vertex 35.42811491373752 -52.739699764903605 4.5
  endloop
endfacet
facet normal -1.0 0.0 0.0
  outer loop
    vertex 35.42811491373752 -52.739699764903605 0.9999999999999999
    vertex 35.42811491373752 -48.14906634079256 4.5
    vertex 35.42811491373752 -48.14906634079256 1.0
  endloop
endfacet
facet normal -5.639932965095795e-16 1.0 0.0
  outer loop
    vertex 29.820318984708116 -60.25920924624895 4.5
    vertex 32.320318984708116 -60.25920924624894 1.0000000000000002
    vertex 29.820318984708116 -60.25920924624895 1.0000000000000002
  endloop
endfacet
facet normal -5.639932965095795e-16 1.0 0.0
  outer loop
    vertex 32.320318984708116 -60.25920924624894 1.0000000000000002
    vertex 29.820318984708116 -60.25920924624895 4.5
    vertex 32.320318984708116 -60.25920924624894 4.5
  endloop
endfacet
facet normal 1.0 0.0 0.0
  outer loop
    vertex 29.820318984708116 -33.14906634079256 1.0000000000000002
    vertex 29.820318984708116 -60.25920924624895 4.5
    vertex 29.820318984708116 -60.25920924624895 1.0000000000000002
  endloop
endfacet
facet normal 1.0 0.0 0.0
  outer loop
    vertex 29.820318984708116 -60.25920924624895 4.5
    vertex 29.820318984708116 -33.14906634079256 1.0000000000000002
    vertex 29.820318984708116 -33.14906634079256 4.5
  endloop
endfacet
facet normal -1.0 0.0 0.0
  outer loop
    vertex 28.82031898470812 -31.149066340792558 4.5
    vertex 28.82031898470812 -64.14906634079256 -3.524958103184872e-16
    vertex 28.82031898470812 -64.14906634079256 4.5
  endloop
endfacet
facet normal -1.0 0.0 0.0
  outer loop
    vertex 28.82031898470812 -64.14906634079256 -3.524958103184872e-16
    vertex 28.82031898470812 -31.149066340792558 4.5
    vertex 28.82031898470812 -31.149066340792558 0.0
  endloop
endfacet
facet normal -0.0 -1.0 -0.0
  outer loop
    vertex 61.32031898470812 -71.14906634079256 4.5
    vertex 28.82031898470812 -71.14906634079256 0.0
    vertex 61.32031898470812 -71.14906634079256 0.0
  endloop
endfacet
facet normal -0.0 -1.0 -0.0
  outer loop
    vertex 28.82031898470812 -71.14906634079256 0.0
    vertex 61.32031898470812 -71.14906634079256 4.5
    vertex 28.82031898470812 -71.14906634079256 4.5
  endloop
endfacet
facet normal 1.0 0.0 0.0
  outer loop
    vertex 61.32031898470812 -55.14906634079255 0.0
    vertex 61.32031898470812 -71.14906634079256 4.5
    vertex 61.32031898470812 -71.14906634079256 0.0
  endloop
endfacet
facet normal 1.0 0.0 0.0
  outer loop
    vertex 61.32031898470812 -71.14906634079256 4.5
    vertex 61.32031898470812 -55.14906634079255 0.0
    vertex 61.32031898470812 -55.14906634079255 4.5
  endloop
endfacet
facet normal 0.0 1.0 0.0
  outer loop
    vertex 28.82031898470812 -31.149066340792558 4.5
    vertex 61.32031898470812 -31.149066340792558 0.0
    vertex 28.82031898470812 -31.149066340792558 0.0
  endloop
endfacet
facet normal 0.0 1.0 0.0
  outer loop
    vertex 61.32031898470812 -31.149066340792558 0.0
    vertex 28.82031898470812 -31.149066340792558 4.5
    vertex 61.32031898470812 -31.149066340792558 4.5
  endloop
endfacet
facet normal -1.0 0.0 0.0
  outer loop
    vertex 32.320318984708116 -35.64906634079256 4.5
    vertex 32.320318984708116 -57.75920924624894 1.0133600000000007
    vertex 32.320318984708116 -57.75920924624894 4.5
  endloop
endfacet
facet normal -1.0 0.0 0.0
  outer loop
    vertex 32.320318984708116 -57.75920924624894 1.0133600000000007
    vertex 32.320318984708116 -35.64906634079256 4.5
    vertex 32.320318984708116 -35.64906634079256 1.0000000000000002
  endloop
endfacet
facet normal 5.639932965095797e-15 1.0 0.0
  outer loop
    vertex 32.320318984708116 -35.64906634079256 4.5
    vertex 33.320318984708116 -35.649066340792565 1.0000000000000002
    vertex 32.320318984708116 -35.64906634079256 1.0000000000000002
  endloop
endfacet
facet normal 5.639932965095797e-15 1.0 0.0
  outer loop
    vertex 33.320318984708116 -35.649066340792565 1.0000000000000002
    vertex 32.320318984708116 -35.64906634079256 4.5
    vertex 33.320318984708116 -35.649066340792565 4.5
  endloop
endfacet
endsolid window unit
