solid window unit
facet normal 0.9786622074528277 0.20547574967270096 -3.7414940092465716e-31
  outer loop
    vertex 2.4075150821246996 26.80246025567218 1.0000000000000002
    vertex 2.546978911556059 26.13820678834804 6.500000000000001
    vertex 2.546978911556059 26.13820678834804 1.0000000000000002
  endloop
endfacet
facet normal 0.9786622074528277 0.20547574967270096 -3.7414940092465716e-31
  outer loop
    vertex 2.546978911556059 26.13820678834804 6.500000000000001
    vertex 2.4075150821246996 26.80246025567218 1.0000000000000002
    vertex 2.4075150821246996 26.80246025567218 6.500000000000001
  endloop
endfacet
facet normal 0.9502842082142557 -0.31138388464820277 -2.3809083245540623e-31
  outer loop
    vertex 2.6560723300280986 28.12516802209267 1.0000000000000002
    vertex 2.4447248155626466 27.48017573012239 6.500000000000001
    vertex 2.4447248155626466 27.48017573012239 1.0000000000000002
  endloop
endfacet
facet normal 0.9502842082142557 -0.31138388464820277 -2.3809083245540623e-31
  outer loop
    vertex 2.4447248155626466 27.48017573012239 6.500000000000001
    vertex 2.6560723300280986 28.12516802209267 1.0000000000000002
    vertex 2.6560723300280986 28.12516802209267 6.500000000000001
  endloop
endfacet
facet normal 0.8921340640697427 0.45177075129583627 -4.058822733338739e-31
  outer loop
    vertex 2.546978911556059 26.13820678834804 1.0000000000000002
    vertex 2.8536120743558535 25.532683104217362 6.500000000000001
    vertex 2.8536120743558535 25.532683104217362 1.0000000000000002
  endloop
endfacet
facet normal 0.8921340640697427 0.45177075129583627 -4.058822733338739e-31
  outer loop
    vertex 2.8536120743558535 25.532683104217362 6.500000000000001
    vertex 2.546978911556059 26.13820678834804 1.0000000000000002
    vertex 2.546978911556059 26.13820678834804 6.500000000000001
  endloop
endfacet
facet normal -0.6672783228046252 0.7448084585415545 3.8236017704475484e-32
  outer loop
    vertex 6.467316895782575 24.853612074355784 6.500000000000001
    vertex 6.972845358321494 25.30651802721447 1.0000000000000002
    vertex 6.467316895782575 24.853612074355784 1.0000000000000002
  endloop
endfacet
facet normal -0.6672783228046252 0.7448084585415545 3.8236017704475484e-32
  outer loop
    vertex 6.972845358321494 25.30651802721447 1.0000000000000002
    vertex 6.467316895782575 24.853612074355784 6.500000000000001
    vertex 6.972845358321494 25.30651802721447 6.500000000000001
  endloop
endfacet
facet normal 3.3085197237537924e-31 2.4507553509287344e-31 1.0
  outer loop
    vertex 2.546978911556059 26.13820678834804 1.0000000000000002
    vertex 2.4447248155626466 27.48017573012239 1.0000000000000002
    vertex 2.4075150821246996 26.80246025567218 1.0000000000000002
  endloop
endfacet
facet normal 3.3085197237537924e-31 2.4507553509287344e-31 1.0
  outer loop
    vertex 2.4447248155626466 27.48017573012239 1.0000000000000002
    vertex 2.546978911556059 26.13820678834804 1.0000000000000002
    vertex 2.6560723300280986 28.12516802209267 1.0000000000000002
  endloop
endfacet
facet normal 3.3085197237537924e-31 2.4507553509287344e-31 1.0
  outer loop
    vertex 2.6560723300280986 28.12516802209267 1.0000000000000002
    vertex 2.546978911556059 26.13820678834804 1.0000000000000002
    vertex 2.8536120743558535 25.532683104217362 1.0000000000000002
  endloop
endfacet
facet normal 3.3085197237537924e-31 2.4507553509287344e-31 1.0
  outer loop
    vertex 2.6560723300280986 28.12516802209267 1.0000000000000002
    vertex 2.8536120743558535 25.532683104217362 1.0000000000000002
    vertex 3.027154641678514 28.6934819727854 1.0000000000000002
  endloop
endfacet
facet normal 3.3085197237537924e-31 2.4507553509287344e-31 1.0
  outer loop
    vertex 3.027154641678514 28.6934819727854 1.0000000000000002
    vertex 2.8536120743558535 25.532683104217362 1.0000000000000002
    vertex 3.3065180272145387 25.027154641678443 1.0000000000000002
  endloop
endfacet
facet normal 3.3085197237537924e-31 2.4507553509287344e-31 1.0
  outer loop
    vertex 3.027154641678514 28.6934819727854 1.0000000000000002
    vertex 3.3065180272145387 25.027154641678443 1.0000000000000002
    vertex 3.532683104217432 29.146387925644085 1.0000000000000002
  endloop
endfacet
facet normal 3.3085197237537924e-31 2.4507553509287344e-31 1.0
  outer loop
    vertex 3.532683104217432 29.146387925644085 1.0000000000000002
    vertex 3.3065180272145387 25.027154641678443 1.0000000000000002
    vertex 3.87483197790727 24.656072330028028 1.0000000000000002
  endloop
endfacet
facet normal 3.3085197237537924e-31 2.4507553509287344e-31 1.0
  outer loop
    vertex 3.532683104217432 29.146387925644085 1.0000000000000002
    vertex 3.87483197790727 24.656072330028028 1.0000000000000002
    vertex 4.138206788348112 29.45302108844388 1.0000000000000002
  endloop
endfacet
facet normal 3.3085197237537924e-31 2.4507553509287344e-31 1.0
  outer loop
    vertex 4.138206788348112 29.45302108844388 1.0000000000000002
    vertex 3.87483197790727 24.656072330028028 1.0000000000000002
    vertex 4.519824269877549 24.444724815562576 1.0000000000000002
  endloop
endfacet
facet normal 3.3085197237537924e-31 2.4507553509287344e-31 1.0
  outer loop
    vertex 4.138206788348112 29.45302108844388 1.0000000000000002
    vertex 4.519824269877549 24.444724815562576 1.0000000000000002
    vertex 4.802460255672249 29.59248491787524 1.0000000000000002
  endloop
endfacet
facet normal 3.3085197237537924e-31 2.4507553509287344e-31 1.0
  outer loop
    vertex 4.802460255672249 29.59248491787524 1.0000000000000002
    vertex 4.519824269877549 24.444724815562576 1.0000000000000002
    vertex 5.1975397443277584 24.40751508212463 1.0000000000000002
  endloop
endfacet
facet normal 3.3085197237537924e-31 2.4507553509287344e-31 1.0
  outer loop
    vertex 4.802460255672249 29.59248491787524 1.0000000000000002
    vertex 5.1975397443277584 24.40751508212463 1.0000000000000002
    vertex 5.4801757301224585 29.555275184437292 1.0000000000000002
  endloop
endfacet
facet normal 3.3085197237537924e-31 2.4507553509287344e-31 1.0
  outer loop
    vertex 5.4801757301224585 29.555275184437292 1.0000000000000002
    vertex 5.1975397443277584 24.40751508212463 1.0000000000000002
    vertex 5.861793211651896 24.546978911555986 1.0000000000000002
  endloop
endfacet
facet normal 3.3085197237537924e-31 2.4507553509287344e-31 1.0
  outer loop
    vertex 5.4801757301224585 29.555275184437292 1.0000000000000002
    vertex 5.861793211651896 24.546978911555986 1.0000000000000002
    vertex 6.125168022092737 29.343927669971844 1.0000000000000002
  endloop
endfacet
facet normal 3.3085197237537924e-31 2.4507553509287344e-31 1.0
  outer loop
    vertex 6.125168022092737 29.343927669971844 1.0000000000000002
    vertex 5.861793211651896 24.546978911555986 1.0000000000000002
    vertex 6.467316895782575 24.853612074355784 1.0000000000000002
  endloop
endfacet
facet normal 3.3085197237537924e-31 2.4507553509287344e-31 1.0
  outer loop
    vertex 6.125168022092737 29.343927669971844 1.0000000000000002
    vertex 6.467316895782575 24.853612074355784 1.0000000000000002
    vertex 6.693481972785469 28.972845358321422 1.0000000000000002
  endloop
endfacet
facet normal 3.3085197237537924e-31 2.4507553509287344e-31 1.0
  outer loop
    vertex 6.693481972785469 28.972845358321422 1.0000000000000002
    vertex 6.467316895782575 24.853612074355784 1.0000000000000002
    vertex 6.972845358321494 25.30651802721447 1.0000000000000002
  endloop
endfacet
facet normal 3.3085197237537924e-31 2.4507553509287344e-31 1.0
  outer loop
    vertex 6.693481972785469 28.972845358321422 1.0000000000000002
    vertex 6.972845358321494 25.30651802721447 1.0000000000000002
    vertex 7.146387925644155 28.467316895782506 1.0000000000000002
  endloop
endfacet
facet normal 3.3085197237537924e-31 2.4507553509287344e-31 1.0
  outer loop
    vertex 7.146387925644155 28.467316895782506 1.0000000000000002
    vertex 6.972845358321494 25.30651802721447 1.0000000000000002
    vertex 7.343927669971911 25.8748319779072 1.0000000000000002
  endloop
endfacet
facet normal 3.3085197237537924e-31 2.4507553509287344e-31 1.0
  outer loop
    vertex 7.146387925644155 28.467316895782506 1.0000000000000002
    vertex 7.343927669971911 25.8748319779072 1.0000000000000002
    vertex 7.453021088443949 27.861793211651825 1.0000000000000002
  endloop
endfacet
facet normal 3.3085197237537924e-31 2.4507553509287344e-31 1.0
  outer loop
    vertex 7.453021088443949 27.861793211651825 1.0000000000000002
    vertex 7.343927669971911 25.8748319779072 1.0000000000000002
    vertex 7.555275184437361 26.519824269877475 1.0000000000000002
  endloop
endfacet
facet normal 3.3085197237537924e-31 2.4507553509287344e-31 1.0
  outer loop
    vertex 7.453021088443949 27.861793211651825 1.0000000000000002
    vertex 7.555275184437361 26.519824269877475 1.0000000000000002
    vertex 7.59248491787531 27.197539744327685 1.0000000000000002
  endloop
endfacet
facet normal -0.3113838846482001 -0.9502842082142566 3.3591338322018106e-31
  outer loop
    vertex 6.125168022092737 29.343927669971844 6.500000000000001
    vertex 5.4801757301224585 29.555275184437292 1.0000000000000002
    vertex 6.125168022092737 29.343927669971844 1.0000000000000002
  endloop
endfacet
facet normal -0.3113838846482001 -0.9502842082142566 3.3591338322018106e-31
  outer loop
    vertex 5.4801757301224585 29.555275184437292 1.0000000000000002
    vertex 6.125168022092737 29.343927669971844 6.500000000000001
    vertex 5.4801757301224585 29.555275184437292 6.500000000000001
  endloop
endfacet
facet normal -0.054822084725896024 -0.9984961387137692 2.628449703447378e-31
  outer loop
    vertex 5.4801757301224585 29.555275184437292 6.500000000000001
    vertex 4.802460255672249 29.59248491787524 1.0000000000000002
    vertex 5.4801757301224585 29.555275184437292 1.0000000000000002
  endloop
endfacet
facet normal -0.054822084725896024 -0.9984961387137692 2.628449703447378e-31
  outer loop
    vertex 4.802460255672249 29.59248491787524 1.0000000000000002
    vertex 5.4801757301224585 29.555275184437292 6.500000000000001
    vertex 4.802460255672249 29.59248491787524 6.500000000000001
  endloop
endfacet
facet normal 0.667278322804626 -0.7448084585415539 -3.823601770447591e-32
  outer loop
    vertex 3.532683104217432 29.146387925644085 6.500000000000001
    vertex 3.027154641678514 28.6934819727854 1.0000000000000002
    vertex 3.532683104217432 29.146387925644085 1.0000000000000002
  endloop
endfacet
facet normal 0.667278322804626 -0.7448084585415539 -3.823601770447591e-32
  outer loop
    vertex 3.027154641678514 28.6934819727854 1.0000000000000002
    vertex 3.532683104217432 29.146387925644085 6.500000000000001
    vertex 3.027154641678514 28.6934819727854 6.500000000000001
  endloop
endfacet
facet normal -0.9786622074528274 -0.20547574967270296 3.741494009246575e-31
  outer loop
    vertex 7.453021088443949 27.861793211651825 6.500000000000001
    vertex 7.59248491787531 27.197539744327685 1.0000000000000002
    vertex 7.59248491787531 27.197539744327685 6.500000000000001
  endloop
endfacet
facet normal -0.9786622074528274 -0.20547574967270296 3.741494009246575e-31
  outer loop
    vertex 7.59248491787531 27.197539744327685 1.0000000000000002
    vertex 7.453021088443949 27.861793211651825 6.500000000000001
    vertex 7.453021088443949 27.861793211651825 1.0000000000000002
  endloop
endfacet
facet normal 0.7448084585415525 0.6672783228046275 -4.099549395675577e-31
  outer loop
    vertex 2.8536120743558535 25.532683104217362 1.0000000000000002
    vertex 3.3065180272145387 25.027154641678443 6.500000000000001
    vertex 3.3065180272145387 25.027154641678443 1.0000000000000002
  endloop
endfacet
facet normal 0.7448084585415525 0.6672783228046275 -4.099549395675577e-31
  outer loop
    vertex 3.3065180272145387 25.027154641678443 6.500000000000001
    vertex 2.8536120743558535 25.532683104217362 1.0000000000000002
    vertex 2.8536120743558535 25.532683104217362 6.500000000000001
  endloop
endfacet
facet normal -0.837311979343846 0.5467253874179346 1.4303730298913537e-31
  outer loop
    vertex 7.343927669971911 25.8748319779072 6.500000000000001
    vertex 6.972845358321494 25.30651802721447 1.0000000000000002
    vertex 6.972845358321494 25.30651802721447 6.500000000000001
  endloop
endfacet
facet normal -0.837311979343846 0.5467253874179346 1.4303730298913537e-31
  outer loop
    vertex 6.972845358321494 25.30651802721447 1.0000000000000002
    vertex 7.343927669971911 25.8748319779072 6.500000000000001
    vertex 7.343927669971911 25.8748319779072 1.0000000000000002
  endloop
endfacet
facet normal -0.9984961387137692 0.054822084725896024 3.1691886515354503e-31
  outer loop
    vertex 7.59248491787531 27.197539744327685 6.500000000000001
    vertex 7.555275184437361 26.519824269877475 1.0000000000000002
    vertex 7.555275184437361 26.519824269877475 6.500000000000001
  endloop
endfacet
facet normal -0.9984961387137692 0.054822084725896024 3.1691886515354503e-31
  outer loop
    vertex 7.555275184437361 26.519824269877475 1.0000000000000002
    vertex 7.59248491787531 27.197539744327685 6.500000000000001
    vertex 7.59248491787531 27.197539744327685 1.0000000000000002
  endloop
endfacet
facet normal -0.8921340640697433 -0.451770751295835 4.058822733338737e-31
  outer loop
    vertex 7.146387925644155 28.467316895782506 6.500000000000001
    vertex 7.453021088443949 27.861793211651825 1.0000000000000002
    vertex 7.453021088443949 27.861793211651825 6.500000000000001
  endloop
endfacet
facet normal -0.8921340640697433 -0.451770751295835 4.058822733338737e-31
  outer loop
    vertex 7.453021088443949 27.861793211651825 1.0000000000000002
    vertex 7.146387925644155 28.467316895782506 6.500000000000001
    vertex 7.146387925644155 28.467316895782506 1.0000000000000002
  endloop
endfacet
facet normal -0.7448084585415516 -0.6672783228046284 4.0995493956755765e-31
  outer loop
    vertex 6.693481972785469 28.972845358321422 6.500000000000001
    vertex 7.146387925644155 28.467316895782506 1.0000000000000002
    vertex 7.146387925644155 28.467316895782506 6.500000000000001
  endloop
endfacet
facet normal -0.7448084585415516 -0.6672783228046284 4.0995493956755765e-31
  outer loop
    vertex 7.146387925644155 28.467316895782506 1.0000000000000002
    vertex 6.693481972785469 28.972845358321422 6.500000000000001
    vertex 6.693481972785469 28.972845358321422 1.0000000000000002
  endloop
endfacet
facet normal -0.9502842082142564 0.3113838846482004 2.3809083245540706e-31
  outer loop
    vertex 7.555275184437361 26.519824269877475 6.500000000000001
    vertex 7.343927669971911 25.8748319779072 1.0000000000000002
    vertex 7.343927669971911 25.8748319779072 6.500000000000001
  endloop
endfacet
facet normal -0.9502842082142564 0.3113838846482004 2.3809083245540706e-31
  outer loop
    vertex 7.343927669971911 25.8748319779072 1.0000000000000002
    vertex 7.555275184437361 26.519824269877475 6.500000000000001
    vertex 7.555275184437361 26.519824269877475 1.0000000000000002
  endloop
endfacet
facet normal 0.20547574967270418 -0.9786622074528271 1.7186410711215046e-31
  outer loop
    vertex 4.802460255672249 29.59248491787524 6.500000000000001
    vertex 4.138206788348112 29.45302108844388 1.0000000000000002
    vertex 4.802460255672249 29.59248491787524 1.0000000000000002
  endloop
endfacet
facet normal 0.20547574967270418 -0.9786622074528271 1.7186410711215046e-31
  outer loop
    vertex 4.138206788348112 29.45302108844388 1.0000000000000002
    vertex 4.802460255672249 29.59248491787524 6.500000000000001
    vertex 4.138206788348112 29.45302108844388 6.500000000000001
  endloop
endfacet
facet normal 0.45177075129583794 -0.8921340640697419 6.917098899873695e-32
  outer loop
    vertex 4.138206788348112 29.45302108844388 6.500000000000001
    vertex 3.532683104217432 29.146387925644085 1.0000000000000002
    vertex 4.138206788348112 29.45302108844388 1.0000000000000002
  endloop
endfacet
facet normal 0.45177075129583794 -0.8921340640697419 6.917098899873695e-32
  outer loop
    vertex 3.532683104217432 29.146387925644085 1.0000000000000002
    vertex 4.138206788348112 29.45302108844388 6.500000000000001
    vertex 3.532683104217432 29.146387925644085 6.500000000000001
  endloop
endfacet
facet normal 0.8373119793438469 -0.5467253874179332 -1.4303730298913605e-31
  outer loop
    vertex 3.027154641678514 28.6934819727854 1.0000000000000002
    vertex 2.6560723300280986 28.12516802209267 6.500000000000001
    vertex 2.6560723300280986 28.12516802209267 1.0000000000000002
  endloop
endfacet
facet normal 0.8373119793438469 -0.5467253874179332 -1.4303730298913605e-31
  outer loop
    vertex 2.6560723300280986 28.12516802209267 6.500000000000001
    vertex 3.027154641678514 28.6934819727854 1.0000000000000002
    vertex 3.027154641678514 28.6934819727854 6.500000000000001
  endloop
endfacet
facet normal -0.5467253874179366 -0.8373119793438447 3.860898541522834e-31
  outer loop
    vertex 6.693481972785469 28.972845358321422 6.500000000000001
    vertex 6.125168022092737 29.343927669971844 1.0000000000000002
    vertex 6.693481972785469 28.972845358321422 1.0000000000000002
  endloop
endfacet
facet normal -0.5467253874179366 -0.8373119793438447 3.860898541522834e-31
  outer loop
    vertex 6.125168022092737 29.343927669971844 1.0000000000000002
    vertex 6.693481972785469 28.972845358321422 6.500000000000001
    vertex 6.125168022092737 29.343927669971844 6.500000000000001
  endloop
endfacet
facet normal 0.9984961387137694 -0.05482208472589396 -3.169188651535456e-31
  outer loop
    vertex 2.4447248155626466 27.48017573012239 1.0000000000000002
    vertex 2.4075150821246996 26.80246025567218 6.500000000000001
    vertex 2.4075150821246996 26.80246025567218 1.0000000000000002
  endloop
endfacet
facet normal 0.9984961387137694 -0.05482208472589396 -3.169188651535456e-31
  outer loop
    vertex 2.4075150821246996 26.80246025567218 6.500000000000001
    vertex 2.4447248155626466 27.48017573012239 1.0000000000000002
    vertex 2.4447248155626466 27.48017573012239 6.500000000000001
  endloop
endfacet
facet normal -0.4517707512958384 0.8921340640697417 -6.917098899873675e-32
  outer loop
    vertex 5.861793211651896 24.546978911555986 6.500000000000001
    vertex 6.467316895782575 24.853612074355784 1.0000000000000002
    vertex 5.861793211651896 24.546978911555986 1.0000000000000002
  endloop
endfacet
facet normal -0.4517707512958384 0.8921340640697417 -6.917098899873675e-32
  outer loop
    vertex 6.467316895782575 24.853612074355784 1.0000000000000002
    vertex 5.861793211651896 24.546978911555986 6.500000000000001
    vertex 6.467316895782575 24.853612074355784 6.500000000000001
  endloop
endfacet
facet normal -0.2054757496727 0.978662207452828 -1.7186410711215208e-31
  outer loop
    vertex 5.1975397443277584 24.40751508212463 6.500000000000001
    vertex 5.861793211651896 24.546978911555986 1.0000000000000002
    vertex 5.1975397443277584 24.40751508212463 1.0000000000000002
  endloop
endfacet
facet normal -0.2054757496727 0.978662207452828 -1.7186410711215208e-31
  outer loop
    vertex 5.861793211651896 24.546978911555986 1.0000000000000002
    vertex 5.1975397443277584 24.40751508212463 6.500000000000001
    vertex 5.861793211651896 24.546978911555986 6.500000000000001
  endloop
endfacet
facet normal 0.3113838846481998 0.9502842082142567 -3.35913383220181e-31
  outer loop
    vertex 3.87483197790727 24.656072330028028 6.500000000000001
    vertex 4.519824269877549 24.444724815562576 1.0000000000000002
    vertex 3.87483197790727 24.656072330028028 1.0000000000000002
  endloop
endfacet
facet normal 0.3113838846481998 0.9502842082142567 -3.35913383220181e-31
  outer loop
    vertex 4.519824269877549 24.444724815562576 1.0000000000000002
    vertex 3.87483197790727 24.656072330028028 6.500000000000001
    vertex 4.519824269877549 24.444724815562576 6.500000000000001
  endloop
endfacet
facet normal 0.5467253874179342 0.8373119793438464 -3.86089854152283e-31
  outer loop
    vertex 3.3065180272145387 25.027154641678443 6.500000000000001
    vertex 3.87483197790727 24.656072330028028 1.0000000000000002
    vertex 3.3065180272145387 25.027154641678443 1.0000000000000002
  endloop
endfacet
facet normal 0.5467253874179342 0.8373119793438464 -3.86089854152283e-31
  outer loop
    vertex 3.87483197790727 24.656072330028028 1.0000000000000002
    vertex 3.3065180272145387 25.027154641678443 6.500000000000001
    vertex 3.87483197790727 24.656072330028028 6.500000000000001
  endloop
endfacet
facet normal 0.054822084725896086 0.9984961387137693 -2.6284497034473786e-31
  outer loop
    vertex 4.519824269877549 24.444724815562576 6.500000000000001
    vertex 5.1975397443277584 24.40751508212463 1.0000000000000002
    vertex 4.519824269877549 24.444724815562576 1.0000000000000002
  endloop
endfacet
facet normal 0.054822084725896086 0.9984961387137693 -2.6284497034473786e-31
  outer loop
    vertex 5.1975397443277584 24.40751508212463 1.0000000000000002
    vertex 4.519824269877549 24.444724815562576 6.500000000000001
    vertex 5.1975397443277584 24.40751508212463 6.500000000000001
  endloop
endfacet
facet normal -8.577643728250572e-32 -2.234048750363537e-48 1.0
  outer loop
    vertex 2.488592851648433 19.327070482733376 1.0000000000000002
    vertex 2.4885928516484324 20.672929517266486 1.0000000000000002
    vertex 2.40000000000001 19.999999999999932 1.0000000000000002
  endloop
endfacet
facet normal -8.577643728250572e-32 -2.234048750363537e-48 1.0
  outer loop
    vertex 2.4885928516484324 20.672929517266486 1.0000000000000002
    vertex 2.488592851648433 19.327070482733376 1.0000000000000002
    vertex 2.748333950160469 21.299999999999933 1.0000000000000002
  endloop
endfacet
facet normal -8.577643728250572e-32 -2.234048750363537e-48 1.0
  outer loop
    vertex 2.748333950160469 21.299999999999933 1.0000000000000002
    vertex 2.488592851648433 19.327070482733376 1.0000000000000002
    vertex 2.74833395016047 18.699999999999932 1.0000000000000002
  endloop
endfacet
facet normal -8.577643728250572e-32 -2.234048750363537e-48 1.0
  outer loop
    vertex 2.748333950160469 21.299999999999933 1.0000000000000002
    vertex 2.74833395016047 18.699999999999932 1.0000000000000002
    vertex 3.161522368914986 21.838477631084956 1.0000000000000002
  endloop
endfacet
facet normal -8.577643728250572e-32 -2.234048750363537e-48 1.0
  outer loop
    vertex 3.161522368914986 21.838477631084956 1.0000000000000002
    vertex 2.74833395016047 18.699999999999932 1.0000000000000002
    vertex 3.1615223689149867 18.16152236891491 1.0000000000000002
  endloop
endfacet
facet normal -8.577643728250572e-32 -2.234048750363537e-48 1.0
  outer loop
    vertex 3.161522368914986 21.838477631084956 1.0000000000000002
    vertex 3.1615223689149867 18.16152236891491 1.0000000000000002
    vertex 3.7000000000000086 22.25166604983947 1.0000000000000002
  endloop
endfacet
facet normal -8.577643728250572e-32 -2.234048750363537e-48 1.0
  outer loop
    vertex 3.7000000000000086 22.25166604983947 1.0000000000000002
    vertex 3.1615223689149867 18.16152236891491 1.0000000000000002
    vertex 3.700000000000011 17.74833395016039 1.0000000000000002
  endloop
endfacet
facet normal -8.577643728250572e-32 -2.234048750363537e-48 1.0
  outer loop
    vertex 3.7000000000000086 22.25166604983947 1.0000000000000002
    vertex 3.700000000000011 17.74833395016039 1.0000000000000002
    vertex 4.327070482733454 22.51140714835151 1.0000000000000002
  endloop
endfacet
facet normal -8.577643728250572e-32 -2.234048750363537e-48 1.0
  outer loop
    vertex 4.327070482733454 22.51140714835151 1.0000000000000002
    vertex 3.700000000000011 17.74833395016039 1.0000000000000002
    vertex 4.327070482733457 17.488592851648352 1.0000000000000002
  endloop
endfacet
facet normal -8.577643728250572e-32 -2.234048750363537e-48 1.0
  outer loop
    vertex 4.327070482733454 22.51140714835151 1.0000000000000002
    vertex 4.327070482733457 17.488592851648352 1.0000000000000002
    vertex 5.00000000000001 22.599999999999934 1.0000000000000002
  endloop
endfacet
facet normal -8.577643728250572e-32 -2.234048750363537e-48 1.0
  outer loop
    vertex 5.00000000000001 22.599999999999934 1.0000000000000002
    vertex 4.327070482733457 17.488592851648352 1.0000000000000002
    vertex 5.000000000000011 17.39999999999993 1.0000000000000002
  endloop
endfacet
facet normal -8.577643728250572e-32 -2.234048750363537e-48 1.0
  outer loop
    vertex 5.00000000000001 22.599999999999934 1.0000000000000002
    vertex 5.000000000000011 17.39999999999993 1.0000000000000002
    vertex 5.672929517266564 22.511407148351513 1.0000000000000002
  endloop
endfacet
facet normal -8.577643728250572e-32 -2.234048750363537e-48 1.0
  outer loop
    vertex 5.672929517266564 22.511407148351513 1.0000000000000002
    vertex 5.000000000000011 17.39999999999993 1.0000000000000002
    vertex 5.6729295172665655 17.488592851648356 1.0000000000000002
  endloop
endfacet
facet normal -8.577643728250572e-32 -2.234048750363537e-48 1.0
  outer loop
    vertex 5.672929517266564 22.511407148351513 1.0000000000000002
    vertex 5.6729295172665655 17.488592851648356 1.0000000000000002
    vertex 6.300000000000009 22.251666049839475 1.0000000000000002
  endloop
endfacet
facet normal -8.577643728250572e-32 -2.234048750363537e-48 1.0
  outer loop
    vertex 6.300000000000009 22.251666049839475 1.0000000000000002
    vertex 5.6729295172665655 17.488592851648356 1.0000000000000002
    vertex 6.300000000000011 17.74833395016039 1.0000000000000002
  endloop
endfacet
facet normal -8.577643728250572e-32 -2.234048750363537e-48 1.0
  outer loop
    vertex 6.300000000000009 22.251666049839475 1.0000000000000002
    vertex 6.300000000000011 17.74833395016039 1.0000000000000002
    vertex 6.838477631085034 21.838477631084956 1.0000000000000002
  endloop
endfacet
facet normal -8.577643728250572e-32 -2.234048750363537e-48 1.0
  outer loop
    vertex 6.838477631085034 21.838477631084956 1.0000000000000002
    vertex 6.300000000000011 17.74833395016039 1.0000000000000002
    vertex 6.838477631085035 18.16152236891491 1.0000000000000002
  endloop
endfacet
facet normal -8.577643728250572e-32 -2.234048750363537e-48 1.0
  outer loop
    vertex 6.838477631085034 21.838477631084956 1.0000000000000002
    vertex 6.838477631085035 18.16152236891491 1.0000000000000002
    vertex 7.251666049839551 21.299999999999933 1.0000000000000002
  endloop
endfacet
facet normal -8.577643728250572e-32 -2.234048750363537e-48 1.0
  outer loop
    vertex 7.251666049839551 21.299999999999933 1.0000000000000002
    vertex 6.838477631085035 18.16152236891491 1.0000000000000002
    vertex 7.251666049839551 18.699999999999932 1.0000000000000002
  endloop
endfacet
facet normal -8.577643728250572e-32 -2.234048750363537e-48 1.0
  outer loop
    vertex 7.251666049839551 21.299999999999933 1.0000000000000002
    vertex 7.251666049839551 18.699999999999932 1.0000000000000002
    vertex 7.511407148351589 19.327070482733376 1.0000000000000002
  endloop
endfacet
facet normal -8.577643728250572e-32 -2.234048750363537e-48 1.0
  outer loop
    vertex 7.251666049839551 21.299999999999933 1.0000000000000002
    vertex 7.511407148351589 19.327070482733376 1.0000000000000002
    vertex 7.511407148351589 20.67292951726649 1.0000000000000002
  endloop
endfacet
facet normal -8.577643728250572e-32 -2.234048750363537e-48 1.0
  outer loop
    vertex 7.511407148351589 20.67292951726649 1.0000000000000002
    vertex 7.511407148351589 19.327070482733376 1.0000000000000002
    vertex 7.600000000000011 19.999999999999932 1.0000000000000002
  endloop
endfacet
facet normal -0.38268343236508884 -0.9238795325112871 -3.282522143531806e-32
  outer loop
    vertex 6.300000000000009 22.251666049839475 6.500000000000001
    vertex 5.672929517266564 22.511407148351513 1.0000000000000002
    vertex 6.300000000000009 22.251666049839475 1.0000000000000002
  endloop
endfacet
facet normal -0.38268343236508884 -0.9238795325112871 -3.282522143531806e-32
  outer loop
    vertex 5.672929517266564 22.511407148351513 1.0000000000000002
    vertex 6.300000000000009 22.251666049839475 6.500000000000001
    vertex 5.672929517266564 22.511407148351513 6.500000000000001
  endloop
endfacet
facet normal 0.38268343236509206 0.923879532511286 3.2825221435318337e-32
  outer loop
    vertex 3.700000000000011 17.74833395016039 6.500000000000001
    vertex 4.327070482733457 17.488592851648352 1.0000000000000002
    vertex 3.700000000000011 17.74833395016039 1.0000000000000002
  endloop
endfacet
facet normal 0.38268343236509206 0.923879532511286 3.2825221435318337e-32
  outer loop
    vertex 4.327070482733457 17.488592851648352 1.0000000000000002
    vertex 3.700000000000011 17.74833395016039 6.500000000000001
    vertex 4.327070482733457 17.488592851648352 6.500000000000001
  endloop
endfacet
facet normal -0.6087614290087192 0.7933533402912363 -5.221738653537496e-32
  outer loop
    vertex 6.300000000000011 17.74833395016039 6.500000000000001
    vertex 6.838477631085035 18.16152236891491 1.0000000000000002
    vertex 6.300000000000011 17.74833395016039 1.0000000000000002
  endloop
endfacet
facet normal -0.6087614290087192 0.7933533402912363 -5.221738653537496e-32
  outer loop
    vertex 6.838477631085035 18.16152236891491 1.0000000000000002
    vertex 6.300000000000011 17.74833395016039 6.500000000000001
    vertex 6.838477631085035 18.16152236891491 6.500000000000001
  endloop
endfacet
facet normal -0.9238795325112866 0.3826834323650903 -7.924709477704509e-32
  outer loop
    vertex 7.511407148351589 19.327070482733376 6.500000000000001
    vertex 7.251666049839551 18.699999999999932 1.0000000000000002
    vertex 7.251666049839551 18.699999999999932 6.500000000000001
  endloop
endfacet
facet normal -0.9238795325112866 0.3826834323650903 -7.924709477704509e-32
  outer loop
    vertex 7.251666049839551 18.699999999999932 1.0000000000000002
    vertex 7.511407148351589 19.327070482733376 6.500000000000001
    vertex 7.511407148351589 19.327070482733376 1.0000000000000002
  endloop
endfacet
facet normal 0.7933533402912343 -0.6087614290087219 6.805102303635747e-32
  outer loop
    vertex 3.161522368914986 21.838477631084956 1.0000000000000002
    vertex 2.748333950160469 21.299999999999933 6.500000000000001
    vertex 2.748333950160469 21.299999999999933 1.0000000000000002
  endloop
endfacet
facet normal 0.7933533402912343 -0.6087614290087219 6.805102303635747e-32
  outer loop
    vertex 2.748333950160469 21.299999999999933 6.500000000000001
    vertex 3.161522368914986 21.838477631084956 1.0000000000000002
    vertex 3.161522368914986 21.838477631084956 6.500000000000001
  endloop
endfacet
facet normal 0.9914448613738104 -0.13052619222005152 8.504260797069322e-32
  outer loop
    vertex 2.4885928516484324 20.672929517266486 1.0000000000000002
    vertex 2.40000000000001 19.999999999999932 6.500000000000001
    vertex 2.40000000000001 19.999999999999932 1.0000000000000002
  endloop
endfacet
facet normal 0.9914448613738104 -0.13052619222005152 8.504260797069322e-32
  outer loop
    vertex 2.40000000000001 19.999999999999932 6.500000000000001
    vertex 2.4885928516484324 20.672929517266486 1.0000000000000002
    vertex 2.4885928516484324 20.672929517266486 6.500000000000001
  endloop
endfacet
facet normal 0.1305261922200539 -0.99144486137381 1.119607174068774e-32
  outer loop
    vertex 5.00000000000001 22.599999999999934 6.500000000000001
    vertex 4.327070482733454 22.51140714835151 1.0000000000000002
    vertex 5.00000000000001 22.599999999999934 1.0000000000000002
  endloop
endfacet
facet normal 0.1305261922200539 -0.99144486137381 1.119607174068774e-32
  outer loop
    vertex 4.327070482733454 22.51140714835151 1.0000000000000002
    vertex 5.00000000000001 22.599999999999934 6.500000000000001
    vertex 4.327070482733454 22.51140714835151 6.500000000000001
  endloop
endfacet
facet normal -0.1305261922200501 -0.9914448613738106 -1.1196071740687415e-32
  outer loop
    vertex 5.672929517266564 22.511407148351513 6.500000000000001
    vertex 5.00000000000001 22.599999999999934 1.0000000000000002
    vertex 5.672929517266564 22.511407148351513 1.0000000000000002
  endloop
endfacet
facet normal -0.1305261922200501 -0.9914448613738106 -1.1196071740687415e-32
  outer loop
    vertex 5.00000000000001 22.599999999999934 1.0000000000000002
    vertex 5.672929517266564 22.511407148351513 6.500000000000001
    vertex 5.00000000000001 22.599999999999934 6.500000000000001
  endloop
endfacet
facet normal 0.9238795325112874 -0.38268343236508834 7.924709477704515e-32
  outer loop
    vertex 2.748333950160469 21.299999999999933 1.0000000000000002
    vertex 2.4885928516484324 20.672929517266486 6.500000000000001
    vertex 2.4885928516484324 20.672929517266486 1.0000000000000002
  endloop
endfacet
facet normal 0.9238795325112874 -0.38268343236508834 7.924709477704515e-32
  outer loop
    vertex 2.4885928516484324 20.672929517266486 6.500000000000001
    vertex 2.748333950160469 21.299999999999933 1.0000000000000002
    vertex 2.748333950160469 21.299999999999933 6.500000000000001
  endloop
endfacet
facet normal -0.7933533402912363 0.6087614290087192 -6.805102303635766e-32
  outer loop
    vertex 7.251666049839551 18.699999999999932 6.500000000000001
    vertex 6.838477631085035 18.16152236891491 1.0000000000000002
    vertex 6.838477631085035 18.16152236891491 6.500000000000001
  endloop
endfacet
facet normal -0.7933533402912363 0.6087614290087192 -6.805102303635766e-32
  outer loop
    vertex 6.838477631085035 18.16152236891491 1.0000000000000002
    vertex 7.251666049839551 18.699999999999932 6.500000000000001
    vertex 7.251666049839551 18.699999999999932 1.0000000000000002
  endloop
endfacet
facet normal -0.13052619222005407 0.9914448613738102 -1.1196071740687752e-32
  outer loop
    vertex 5.000000000000011 17.39999999999993 6.500000000000001
    vertex 5.6729295172665655 17.488592851648356 1.0000000000000002
    vertex 5.000000000000011 17.39999999999993 1.0000000000000002
  endloop
endfacet
facet normal -0.13052619222005407 0.9914448613738102 -1.1196071740687752e-32
  outer loop
    vertex 5.6729295172665655 17.488592851648356 1.0000000000000002
    vertex 5.000000000000011 17.39999999999993 6.500000000000001
    vertex 5.6729295172665655 17.488592851648356 6.500000000000001
  endloop
endfacet
facet normal 0.9914448613738104 0.13052619222005202 8.504260797069322e-32
  outer loop
    vertex 2.40000000000001 19.999999999999932 1.0000000000000002
    vertex 2.488592851648433 19.327070482733376 6.500000000000001
    vertex 2.488592851648433 19.327070482733376 1.0000000000000002
  endloop
endfacet
facet normal 0.9914448613738104 0.13052619222005202 8.504260797069322e-32
  outer loop
    vertex 2.488592851648433 19.327070482733376 6.500000000000001
    vertex 2.40000000000001 19.999999999999932 1.0000000000000002
    vertex 2.40000000000001 19.999999999999932 6.500000000000001
  endloop
endfacet
facet normal 0.38268343236508845 -0.9238795325112873 3.282522143531803e-32
  outer loop
    vertex 4.327070482733454 22.51140714835151 6.500000000000001
    vertex 3.7000000000000086 22.25166604983947 1.0000000000000002
    vertex 4.327070482733454 22.51140714835151 1.0000000000000002
  endloop
endfacet
facet normal 0.38268343236508845 -0.9238795325112873 3.282522143531803e-32
  outer loop
    vertex 3.7000000000000086 22.25166604983947 1.0000000000000002
    vertex 4.327070482733454 22.51140714835151 6.500000000000001
    vertex 3.7000000000000086 22.25166604983947 6.500000000000001
  endloop
endfacet
facet normal 0.6087614290087228 -0.7933533402912335 5.221738653537527e-32
  outer loop
    vertex 3.7000000000000086 22.25166604983947 6.500000000000001
    vertex 3.161522368914986 21.838477631084956 1.0000000000000002
    vertex 3.7000000000000086 22.25166604983947 1.0000000000000002
  endloop
endfacet
facet normal 0.6087614290087228 -0.7933533402912335 5.221738653537527e-32
  outer loop
    vertex 3.161522368914986 21.838477631084956 1.0000000000000002
    vertex 3.7000000000000086 22.25166604983947 6.500000000000001
    vertex 3.161522368914986 21.838477631084956 6.500000000000001
  endloop
endfacet
facet normal 0.9238795325112866 0.3826834323650903 7.924709477704509e-32
  outer loop
    vertex 2.488592851648433 19.327070482733376 1.0000000000000002
    vertex 2.74833395016047 18.699999999999932 6.500000000000001
    vertex 2.74833395016047 18.699999999999932 1.0000000000000002
  endloop
endfacet
facet normal 0.9238795325112866 0.3826834323650903 7.924709477704509e-32
  outer loop
    vertex 2.74833395016047 18.699999999999932 6.500000000000001
    vertex 2.488592851648433 19.327070482733376 1.0000000000000002
    vertex 2.488592851648433 19.327070482733376 6.500000000000001
  endloop
endfacet
facet normal 0.6087614290087194 0.793353340291236 5.221738653537498e-32
  outer loop
    vertex 3.1615223689149867 18.16152236891491 6.500000000000001
    vertex 3.700000000000011 17.74833395016039 1.0000000000000002
    vertex 3.1615223689149867 18.16152236891491 1.0000000000000002
  endloop
endfacet
facet normal 0.6087614290087194 0.793353340291236 5.221738653537498e-32
  outer loop
    vertex 3.700000000000011 17.74833395016039 1.0000000000000002
    vertex 3.1615223689149867 18.16152236891491 6.500000000000001
    vertex 3.700000000000011 17.74833395016039 6.500000000000001
  endloop
endfacet
facet normal 0.7933533402912359 0.6087614290087199 6.805102303635762e-32
  outer loop
    vertex 2.74833395016047 18.699999999999932 1.0000000000000002
    vertex 3.1615223689149867 18.16152236891491 6.500000000000001
    vertex 3.1615223689149867 18.16152236891491 1.0000000000000002
  endloop
endfacet
facet normal 0.7933533402912359 0.6087614290087199 6.805102303635762e-32
  outer loop
    vertex 3.1615223689149867 18.16152236891491 6.500000000000001
    vertex 2.74833395016047 18.699999999999932 1.0000000000000002
    vertex 2.74833395016047 18.699999999999932 6.500000000000001
  endloop
endfacet
facet normal 0.1305261922200501 0.9914448613738106 1.1196071740687415e-32
  outer loop
    vertex 4.327070482733457 17.488592851648352 6.500000000000001
    vertex 5.000000000000011 17.39999999999993 1.0000000000000002
    vertex 4.327070482733457 17.488592851648352 1.0000000000000002
  endloop
endfacet
facet normal 0.1305261922200501 0.9914448613738106 1.1196071740687415e-32
  outer loop
    vertex 5.000000000000011 17.39999999999993 1.0000000000000002
    vertex 4.327070482733457 17.488592851648352 6.500000000000001
    vertex 5.000000000000011 17.39999999999993 6.500000000000001
  endloop
endfacet
facet normal -0.38268343236508845 0.9238795325112873 -3.282522143531803e-32
  outer loop
    vertex 5.6729295172665655 17.488592851648356 6.500000000000001
    vertex 6.300000000000011 17.74833395016039 1.0000000000000002
    vertex 5.6729295172665655 17.488592851648356 1.0000000000000002
  endloop
endfacet
facet normal -0.38268343236508845 0.9238795325112873 -3.282522143531803e-32
  outer loop
    vertex 6.300000000000011 17.74833395016039 1.0000000000000002
    vertex 5.6729295172665655 17.488592851648356 6.500000000000001
    vertex 6.300000000000011 17.74833395016039 6.500000000000001
  endloop
endfacet
facet normal -0.9914448613738104 -0.13052619222005146 -8.504260797069322e-32
  outer loop
    vertex 7.511407148351589 20.67292951726649 6.500000000000001
    vertex 7.600000000000011 19.999999999999932 1.0000000000000002
    vertex 7.600000000000011 19.999999999999932 6.500000000000001
  endloop
endfacet
facet normal -0.9914448613738104 -0.13052619222005146 -8.504260797069322e-32
  outer loop
    vertex 7.600000000000011 19.999999999999932 1.0000000000000002
    vertex 7.511407148351589 20.67292951726649 6.500000000000001
    vertex 7.511407148351589 20.67292951726649 1.0000000000000002
  endloop
endfacet
facet normal -0.9914448613738104 0.13052619222005202 -8.504260797069322e-32
  outer loop
    vertex 7.600000000000011 19.999999999999932 6.500000000000001
    vertex 7.511407148351589 19.327070482733376 1.0000000000000002
    vertex 7.511407148351589 19.327070482733376 6.500000000000001
  endloop
endfacet
facet normal -0.9914448613738104 0.13052619222005202 -8.504260797069322e-32
  outer loop
    vertex 7.511407148351589 19.327070482733376 1.0000000000000002
    vertex 7.600000000000011 19.999999999999932 6.500000000000001
    vertex 7.600000000000011 19.999999999999932 1.0000000000000002
  endloop
endfacet
facet normal -0.7933533402912353 -0.6087614290087205 -6.805102303635756e-32
  outer loop
    vertex 6.838477631085034 21.838477631084956 6.500000000000001
    vertex 7.251666049839551 21.299999999999933 1.0000000000000002
    vertex 7.251666049839551 21.299999999999933 6.500000000000001
  endloop
endfacet
facet normal -0.7933533402912353 -0.6087614290087205 -6.805102303635756e-32
  outer loop
    vertex 7.251666049839551 21.299999999999933 1.0000000000000002
    vertex 6.838477631085034 21.838477631084956 6.500000000000001
    vertex 6.838477631085034 21.838477631084956 1.0000000000000002
  endloop
endfacet
facet normal -0.6087614290087213 -0.7933533402912346 -5.221738653537514e-32
  outer loop
    vertex 6.838477631085034 21.838477631084956 6.500000000000001
    vertex 6.300000000000009 22.251666049839475 1.0000000000000002
    vertex 6.838477631085034 21.838477631084956 1.0000000000000002
  endloop
endfacet
facet normal -0.6087614290087213 -0.7933533402912346 -5.221738653537514e-32
  outer loop
    vertex 6.300000000000009 22.251666049839475 1.0000000000000002
    vertex 6.838477631085034 21.838477631084956 6.500000000000001
    vertex 6.300000000000009 22.251666049839475 6.500000000000001
  endloop
endfacet
facet normal -0.9238795325112861 -0.3826834323650918 -7.924709477704503e-32
  outer loop
    vertex 7.251666049839551 21.299999999999933 6.500000000000001
    vertex 7.511407148351589 20.67292951726649 1.0000000000000002
    vertex 7.511407148351589 20.67292951726649 6.500000000000001
  endloop
endfacet
facet normal -0.9238795325112861 -0.3826834323650918 -7.924709477704503e-32
  outer loop
    vertex 7.511407148351589 20.67292951726649 1.0000000000000002
    vertex 7.251666049839551 21.299999999999933 6.500000000000001
    vertex 7.251666049839551 21.299999999999933 1.0000000000000002
  endloop
endfacet
facet normal -0.980226360200764 0.19787946524983824 1.009413414783364e-31
  outer loop
    vertex 7.593938986396688 12.822572451825112 6.500000000000001
    vertex 7.459631030185162 12.157257337409336 1.0000000000000002
    vertex 7.459631030185162 12.157257337409336 6.500000000000001
  endloop
endfacet
facet normal -0.980226360200764 0.19787946524983824 1.009413414783364e-31
  outer loop
    vertex 7.459631030185162 12.157257337409336 1.0000000000000002
    vertex 7.593938986396688 12.822572451825112 6.500000000000001
    vertex 7.593938986396688 12.822572451825112 1.0000000000000002
  endloop
endfacet
facet normal -0.9980409311686093 -0.06256436455439499 9.630486658820328e-32
  outer loop
    vertex 7.551474287372136 13.49997896043612 6.500000000000001
    vertex 7.593938986396688 12.822572451825112 1.0000000000000002
    vertex 7.593938986396688 12.822572451825112 6.500000000000001
  endloop
endfacet
facet normal -0.9980409311686093 -0.06256436455439499 9.630486658820328e-32
  outer loop
    vertex 7.593938986396688 12.822572451825112 1.0000000000000002
    vertex 7.551474287372136 13.49997896043612 6.500000000000001
    vertex 7.551474287372136 13.49997896043612 1.0000000000000002
  endloop
endfacet
facet normal 0.9478406620179364 0.3187445363067427 -8.510537419140121e-32
  outer loop
    vertex 2.448525712627865 12.500021039563745 1.0000000000000002
    vertex 2.664869167826203 11.856687270852168 6.500000000000001
    vertex 2.664869167826203 11.856687270852168 1.0000000000000002
  endloop
endfacet
facet normal 0.9478406620179364 0.3187445363067427 -8.510537419140121e-32
  outer loop
    vertex 2.664869167826203 11.856687270852168 6.500000000000001
    vertex 2.448525712627865 12.500021039563745 1.0000000000000002
    vertex 2.448525712627865 12.500021039563745 6.500000000000001
  endloop
endfacet
facet normal -0.3187445363067441 0.9478406620179358 5.447585086000497e-32
  outer loop
    vertex 5.499978960436188 10.448525712627795 6.500000000000001
    vertex 6.143312729147764 10.664869167826133 1.0000000000000002
    vertex 5.499978960436188 10.448525712627795 1.0000000000000002
  endloop
endfacet
facet normal -0.3187445363067441 0.9478406620179358 5.447585086000497e-32
  outer loop
    vertex 6.143312729147764 10.664869167826133 1.0000000000000002
    vertex 5.499978960436188 10.448525712627795 6.500000000000001
    vertex 6.143312729147764 10.664869167826133 6.500000000000001
  endloop
endfacet
facet normal -0.9478406620179363 -0.3187445363067429 8.51053741914012e-32
  outer loop
    vertex 7.335130832173798 14.143312729147697 6.500000000000001
    vertex 7.551474287372136 13.49997896043612 1.0000000000000002
    vertex 7.551474287372136 13.49997896043612 6.500000000000001
  endloop
endfacet
facet normal -0.9478406620179363 -0.3187445363067429 8.51053741914012e-32
  outer loop
    vertex 7.551474287372136 13.49997896043612 1.0000000000000002
    vertex 7.335130832173798 14.143312729147697 6.500000000000001
    vertex 7.335130832173798 14.143312729147697 1.0000000000000002
  endloop
endfacet
facet normal 0.895610982685889 -0.44483813650856924 -9.869883076017484e-32
  outer loop
    vertex 2.842296716001021 14.450626257248853 1.0000000000000002
    vertex 2.54036896981484 13.842742662590526 6.500000000000001
    vertex 2.54036896981484 13.842742662590526 1.0000000000000002
  endloop
endfacet
facet normal 0.895610982685889 -0.44483813650856924 -9.869883076017484e-32
  outer loop
    vertex 2.54036896981484 13.842742662590526 6.500000000000001
    vertex 2.842296716001021 14.450626257248853 1.0000000000000002
    vertex 2.842296716001021 14.450626257248853 6.500000000000001
  endloop
endfacet
facet normal -0.8330466181314958 -0.5532027946600394 6.810609118673579e-32
  outer loop
    vertex 6.959652069748975 14.708731624781473 6.500000000000001
    vertex 7.335130832173798 14.143312729147697 1.0000000000000002
    vertex 7.335130832173798 14.143312729147697 6.500000000000001
  endloop
endfacet
facet normal -0.8330466181314958 -0.5532027946600394 6.810609118673579e-32
  outer loop
    vertex 7.335130832173798 14.143312729147697 1.0000000000000002
    vertex 6.959652069748975 14.708731624781473 6.500000000000001
    vertex 6.959652069748975 14.708731624781473 1.0000000000000002
  endloop
endfacet
facet normal -0.6614818238940202 -0.7499611967680998 4.646549061833139e-32
  outer loop
    vertex 6.959652069748975 14.708731624781473 6.500000000000001
    vertex 6.450626257248922 15.157703283998913 1.0000000000000002
    vertex 6.959652069748975 14.708731624781473 1.0000000000000002
  endloop
endfacet
facet normal -0.6614818238940202 -0.7499611967680998 4.646549061833139e-32
  outer loop
    vertex 6.450626257248922 15.157703283998913 1.0000000000000002
    vertex 6.959652069748975 14.708731624781473 6.500000000000001
    vertex 6.450626257248922 15.157703283998913 6.500000000000001
  endloop
endfacet
facet normal 0.9802263602007643 -0.1978794652498372 -1.0094134147833638e-31
  outer loop
    vertex 2.54036896981484 13.842742662590526 1.0000000000000002
    vertex 2.406061013603314 13.17742754817475 6.500000000000001
    vertex 2.406061013603314 13.17742754817475 1.0000000000000002
  endloop
endfacet
facet normal 0.9802263602007643 -0.1978794652498372 -1.0094134147833638e-31
  outer loop
    vertex 2.406061013603314 13.17742754817475 6.500000000000001
    vertex 2.54036896981484 13.842742662590526 1.0000000000000002
    vertex 2.54036896981484 13.842742662590526 6.500000000000001
  endloop
endfacet
facet normal 0.8330466181314958 0.5532027946600394 -6.810609118673579e-32
  outer loop
    vertex 2.664869167826203 11.856687270852168 1.0000000000000002
    vertex 3.0403479302510266 11.29126837521839 6.500000000000001
    vertex 3.0403479302510266 11.29126837521839 1.0000000000000002
  endloop
endfacet
facet normal 0.8330466181314958 0.5532027946600394 -6.810609118673579e-32
  outer loop
    vertex 3.0403479302510266 11.29126837521839 6.500000000000001
    vertex 2.664869167826203 11.856687270852168 1.0000000000000002
    vertex 2.664869167826203 11.856687270852168 6.500000000000001
  endloop
endfacet
facet normal 9.803021403714941e-32 -2.4507553509287352e-32 1.0
  outer loop
    vertex 2.448525712627865 12.500021039563745 1.0000000000000002
    vertex 2.54036896981484 13.842742662590526 1.0000000000000002
    vertex 2.406061013603314 13.17742754817475 1.0000000000000002
  endloop
endfacet
facet normal 9.803021403714941e-32 -2.4507553509287352e-32 1.0
  outer loop
    vertex 2.54036896981484 13.842742662590526 1.0000000000000002
    vertex 2.448525712627865 12.500021039563745 1.0000000000000002
    vertex 2.664869167826203 11.856687270852168 1.0000000000000002
  endloop
endfacet
facet normal 9.803021403714941e-32 -2.4507553509287352e-32 1.0
  outer loop
    vertex 2.54036896981484 13.842742662590526 1.0000000000000002
    vertex 2.664869167826203 11.856687270852168 1.0000000000000002
    vertex 2.842296716001021 14.450626257248853 1.0000000000000002
  endloop
endfacet
facet normal 9.803021403714941e-32 -2.4507553509287352e-32 1.0
  outer loop
    vertex 2.842296716001021 14.450626257248853 1.0000000000000002
    vertex 2.664869167826203 11.856687270852168 1.0000000000000002
    vertex 3.0403479302510266 11.29126837521839 1.0000000000000002
  endloop
endfacet
facet normal 9.803021403714941e-32 -2.4507553509287352e-32 1.0
  outer loop
    vertex 2.842296716001021 14.450626257248853 1.0000000000000002
    vertex 3.0403479302510266 11.29126837521839 1.0000000000000002
    vertex 3.29126837521846 14.959652069748905 1.0000000000000002
  endloop
endfacet
facet normal 9.803021403714941e-32 -2.4507553509287352e-32 1.0
  outer loop
    vertex 3.29126837521846 14.959652069748905 1.0000000000000002
    vertex 3.0403479302510266 11.29126837521839 1.0000000000000002
    vertex 3.549373742751078 10.84229671600095 1.0000000000000002
  endloop
endfacet
facet normal 9.803021403714941e-32 -2.4507553509287352e-32 1.0
  outer loop
    vertex 3.29126837521846 14.959652069748905 1.0000000000000002
    vertex 3.549373742751078 10.84229671600095 1.0000000000000002
    vertex 3.8566872708522357 15.335130832173729 1.0000000000000002
  endloop
endfacet
facet normal 9.803021403714941e-32 -2.4507553509287352e-32 1.0
  outer loop
    vertex 3.8566872708522357 15.335130832173729 1.0000000000000002
    vertex 3.549373742751078 10.84229671600095 1.0000000000000002
    vertex 4.157257337409406 10.54036896981477 1.0000000000000002
  endloop
endfacet
facet normal 9.803021403714941e-32 -2.4507553509287352e-32 1.0
  outer loop
    vertex 3.8566872708522357 15.335130832173729 1.0000000000000002
    vertex 4.157257337409406 10.54036896981477 1.0000000000000002
    vertex 4.500021039563814 15.551474287372068 1.0000000000000002
  endloop
endfacet
facet normal 9.803021403714941e-32 -2.4507553509287352e-32 1.0
  outer loop
    vertex 4.500021039563814 15.551474287372068 1.0000000000000002
    vertex 4.157257337409406 10.54036896981477 1.0000000000000002
    vertex 4.822572451825183 10.406061013603244 1.0000000000000002
  endloop
endfacet
facet normal 9.803021403714941e-32 -2.4507553509287352e-32 1.0
  outer loop
    vertex 4.500021039563814 15.551474287372068 1.0000000000000002
    vertex 4.822572451825183 10.406061013603244 1.0000000000000002
    vertex 5.177427548174817 15.59393898639662 1.0000000000000002
  endloop
endfacet
facet normal 9.803021403714941e-32 -2.4507553509287352e-32 1.0
  outer loop
    vertex 5.177427548174817 15.59393898639662 1.0000000000000002
    vertex 4.822572451825183 10.406061013603244 1.0000000000000002
    vertex 5.499978960436188 10.448525712627795 1.0000000000000002
  endloop
endfacet
facet normal 9.803021403714941e-32 -2.4507553509287352e-32 1.0
  outer loop
    vertex 5.177427548174817 15.59393898639662 1.0000000000000002
    vertex 5.499978960436188 10.448525712627795 1.0000000000000002
    vertex 5.842742662590595 15.459631030185093 1.0000000000000002
  endloop
endfacet
facet normal 9.803021403714941e-32 -2.4507553509287352e-32 1.0
  outer loop
    vertex 5.842742662590595 15.459631030185093 1.0000000000000002
    vertex 5.499978960436188 10.448525712627795 1.0000000000000002
    vertex 6.143312729147764 10.664869167826133 1.0000000000000002
  endloop
endfacet
facet normal 9.803021403714941e-32 -2.4507553509287352e-32 1.0
  outer loop
    vertex 5.842742662590595 15.459631030185093 1.0000000000000002
    vertex 6.143312729147764 10.664869167826133 1.0000000000000002
    vertex 6.450626257248922 15.157703283998913 1.0000000000000002
  endloop
endfacet
facet normal 9.803021403714941e-32 -2.4507553509287352e-32 1.0
  outer loop
    vertex 6.450626257248922 15.157703283998913 1.0000000000000002
    vertex 6.143312729147764 10.664869167826133 1.0000000000000002
    vertex 6.708731624781541 11.040347930250958 1.0000000000000002
  endloop
endfacet
facet normal 9.803021403714941e-32 -2.4507553509287352e-32 1.0
  outer loop
    vertex 6.450626257248922 15.157703283998913 1.0000000000000002
    vertex 6.708731624781541 11.040347930250958 1.0000000000000002
    vertex 6.959652069748975 14.708731624781473 1.0000000000000002
  endloop
endfacet
facet normal 9.803021403714941e-32 -2.4507553509287352e-32 1.0
  outer loop
    vertex 6.959652069748975 14.708731624781473 1.0000000000000002
    vertex 6.708731624781541 11.040347930250958 1.0000000000000002
    vertex 7.1577032839989805 11.54937374275101 1.0000000000000002
  endloop
endfacet
facet normal 9.803021403714941e-32 -2.4507553509287352e-32 1.0
  outer loop
    vertex 6.959652069748975 14.708731624781473 1.0000000000000002
    vertex 7.1577032839989805 11.54937374275101 1.0000000000000002
    vertex 7.335130832173798 14.143312729147697 1.0000000000000002
  endloop
endfacet
facet normal 9.803021403714941e-32 -2.4507553509287352e-32 1.0
  outer loop
    vertex 7.335130832173798 14.143312729147697 1.0000000000000002
    vertex 7.1577032839989805 11.54937374275101 1.0000000000000002
    vertex 7.459631030185162 12.157257337409336 1.0000000000000002
  endloop
endfacet
facet normal 9.803021403714941e-32 -2.4507553509287352e-32 1.0
  outer loop
    vertex 7.335130832173798 14.143312729147697 1.0000000000000002
    vertex 7.459631030185162 12.157257337409336 1.0000000000000002
    vertex 7.551474287372136 13.49997896043612 1.0000000000000002
  endloop
endfacet
facet normal 9.803021403714941e-32 -2.4507553509287352e-32 1.0
  outer loop
    vertex 7.551474287372136 13.49997896043612 1.0000000000000002
    vertex 7.459631030185162 12.157257337409336 1.0000000000000002
    vertex 7.593938986396688 12.822572451825112 1.0000000000000002
  endloop
endfacet
facet normal 0.7499611967680998 -0.6614818238940202 -8.973015783323724e-32
  outer loop
    vertex 3.29126837521846 14.959652069748905 1.0000000000000002
    vertex 2.842296716001021 14.450626257248853 6.500000000000001
    vertex 2.842296716001021 14.450626257248853 1.0000000000000002
  endloop
endfacet
facet normal 0.7499611967680998 -0.6614818238940202 -8.973015783323724e-32
  outer loop
    vertex 2.842296716001021 14.450626257248853 6.500000000000001
    vertex 3.29126837521846 14.959652069748905 1.0000000000000002
    vertex 3.29126837521846 14.959652069748905 6.500000000000001
  endloop
endfacet
facet normal 0.44483813650856957 0.8956109826858887 -2.1658343652141915e-32
  outer loop
    vertex 3.549373742751078 10.84229671600095 6.500000000000001
    vertex 4.157257337409406 10.54036896981477 1.0000000000000002
    vertex 3.549373742751078 10.84229671600095 1.0000000000000002
  endloop
endfacet
facet normal 0.44483813650856957 0.8956109826858887 -2.1658343652141915e-32
  outer loop
    vertex 4.157257337409406 10.54036896981477 1.0000000000000002
    vertex 3.549373742751078 10.84229671600095 6.500000000000001
    vertex 4.157257337409406 10.54036896981477 6.500000000000001
  endloop
endfacet
facet normal 0.19787946524983785 0.9802263602007643 4.6247836418359356e-33
  outer loop
    vertex 4.157257337409406 10.54036896981477 6.500000000000001
    vertex 4.822572451825183 10.406061013603244 1.0000000000000002
    vertex 4.157257337409406 10.54036896981477 1.0000000000000002
  endloop
endfacet
facet normal 0.19787946524983785 0.9802263602007643 4.6247836418359356e-33
  outer loop
    vertex 4.822572451825183 10.406061013603244 1.0000000000000002
    vertex 4.157257337409406 10.54036896981477 6.500000000000001
    vertex 4.822572451825183 10.406061013603244 6.500000000000001
  endloop
endfacet
facet normal -0.5532027946600394 0.8330466181314958 7.464652293606137e-32
  outer loop
    vertex 6.143312729147764 10.664869167826133 6.500000000000001
    vertex 6.708731624781541 11.040347930250958 1.0000000000000002
    vertex 6.143312729147764 10.664869167826133 1.0000000000000002
  endloop
endfacet
facet normal -0.5532027946600394 0.8330466181314958 7.464652293606137e-32
  outer loop
    vertex 6.708731624781541 11.040347930250958 1.0000000000000002
    vertex 6.143312729147764 10.664869167826133 6.500000000000001
    vertex 6.708731624781541 11.040347930250958 6.500000000000001
  endloop
endfacet
facet normal -0.8956109826858885 0.44483813650857 9.86988307601748e-32
  outer loop
    vertex 7.459631030185162 12.157257337409336 6.500000000000001
    vertex 7.1577032839989805 11.54937374275101 1.0000000000000002
    vertex 7.1577032839989805 11.54937374275101 6.500000000000001
  endloop
endfacet
facet normal -0.8956109826858885 0.44483813650857 9.86988307601748e-32
  outer loop
    vertex 7.1577032839989805 11.54937374275101 1.0000000000000002
    vertex 7.459631030185162 12.157257337409336 6.500000000000001
    vertex 7.459631030185162 12.157257337409336 1.0000000000000002
  endloop
endfacet
facet normal -0.7499611967680998 0.6614818238940202 8.973015783323724e-32
  outer loop
    vertex 7.1577032839989805 11.54937374275101 6.500000000000001
    vertex 6.708731624781541 11.040347930250958 1.0000000000000002
    vertex 6.708731624781541 11.040347930250958 6.500000000000001
  endloop
endfacet
facet normal -0.7499611967680998 0.6614818238940202 8.973015783323724e-32
  outer loop
    vertex 6.708731624781541 11.040347930250958 1.0000000000000002
    vertex 7.1577032839989805 11.54937374275101 6.500000000000001
    vertex 7.1577032839989805 11.54937374275101 1.0000000000000002
  endloop
endfacet
facet normal 0.9980409311686095 0.06256436455439318 -9.630486658820333e-32
  outer loop
    vertex 2.406061013603314 13.17742754817475 1.0000000000000002
    vertex 2.448525712627865 12.500021039563745 6.500000000000001
    vertex 2.448525712627865 12.500021039563745 1.0000000000000002
  endloop
endfacet
facet normal 0.9980409311686095 0.06256436455439318 -9.630486658820333e-32
  outer loop
    vertex 2.448525712627865 12.500021039563745 6.500000000000001
    vertex 2.406061013603314 13.17742754817475 1.0000000000000002
    vertex 2.406061013603314 13.17742754817475 6.500000000000001
  endloop
endfacet
facet normal 0.661481823894021 0.7499611967680991 -4.646549061833148e-32
  outer loop
    vertex 3.0403479302510266 11.29126837521839 6.500000000000001
    vertex 3.549373742751078 10.84229671600095 1.0000000000000002
    vertex 3.0403479302510266 11.29126837521839 1.0000000000000002
  endloop
endfacet
facet normal 0.661481823894021 0.7499611967680991 -4.646549061833148e-32
  outer loop
    vertex 3.549373742751078 10.84229671600095 1.0000000000000002
    vertex 3.0403479302510266 11.29126837521839 6.500000000000001
    vertex 3.549373742751078 10.84229671600095 6.500000000000001
  endloop
endfacet
facet normal -0.06256436455439325 0.9980409311686094 3.0592739573439083e-32
  outer loop
    vertex 4.822572451825183 10.406061013603244 6.500000000000001
    vertex 5.499978960436188 10.448525712627795 1.0000000000000002
    vertex 4.822572451825183 10.406061013603244 1.0000000000000002
  endloop
endfacet
facet normal -0.06256436455439325 0.9980409311686094 3.0592739573439083e-32
  outer loop
    vertex 5.499978960436188 10.448525712627795 1.0000000000000002
    vertex 4.822572451825183 10.406061013603244 6.500000000000001
    vertex 5.499978960436188 10.448525712627795 6.500000000000001
  endloop
endfacet
facet normal -0.19787946524983563 -0.9802263602007646 -4.624783641836163e-33
  outer loop
    vertex 5.842742662590595 15.459631030185093 6.500000000000001
    vertex 5.177427548174817 15.59393898639662 1.0000000000000002
    vertex 5.842742662590595 15.459631030185093 1.0000000000000002
  endloop
endfacet
facet normal -0.19787946524983563 -0.9802263602007646 -4.624783641836163e-33
  outer loop
    vertex 5.177427548174817 15.59393898639662 1.0000000000000002
    vertex 5.842742662590595 15.459631030185093 6.500000000000001
    vertex 5.177427548174817 15.59393898639662 6.500000000000001
  endloop
endfacet
facet normal 0.31874453630674343 -0.9478406620179359 -5.447585086000492e-32
  outer loop
    vertex 4.500021039563814 15.551474287372068 6.500000000000001
    vertex 3.8566872708522357 15.335130832173729 1.0000000000000002
    vertex 4.500021039563814 15.551474287372068 1.0000000000000002
  endloop
endfacet
facet normal 0.31874453630674343 -0.9478406620179359 -5.447585086000492e-32
  outer loop
    vertex 3.8566872708522357 15.335130832173729 1.0000000000000002
    vertex 4.500021039563814 15.551474287372068 6.500000000000001
    vertex 3.8566872708522357 15.335130832173729 6.500000000000001
  endloop
endfacet
facet normal 0.5532027946600389 -0.8330466181314962 -7.464652293606133e-32
  outer loop
    vertex 3.8566872708522357 15.335130832173729 6.500000000000001
    vertex 3.29126837521846 14.959652069748905 1.0000000000000002
    vertex 3.8566872708522357 15.335130832173729 1.0000000000000002
  endloop
endfacet
facet normal 0.5532027946600389 -0.8330466181314962 -7.464652293606133e-32
  outer loop
    vertex 3.29126837521846 14.959652069748905 1.0000000000000002
    vertex 3.8566872708522357 15.335130832173729 6.500000000000001
    vertex 3.29126837521846 14.959652069748905 6.500000000000001
  endloop
endfacet
facet normal 0.06256436455439338 -0.9980409311686094 -3.05927395734391e-32
  outer loop
    vertex 5.177427548174817 15.59393898639662 6.500000000000001
    vertex 4.500021039563814 15.551474287372068 1.0000000000000002
    vertex 5.177427548174817 15.59393898639662 1.0000000000000002
  endloop
endfacet
facet normal 0.06256436455439338 -0.9980409311686094 -3.05927395734391e-32
  outer loop
    vertex 4.500021039563814 15.551474287372068 1.0000000000000002
    vertex 5.177427548174817 15.59393898639662 6.500000000000001
    vertex 4.500021039563814 15.551474287372068 6.500000000000001
  endloop
endfacet
facet normal -0.44483813650857 -0.8956109826858885 2.165834365214196e-32
  outer loop
    vertex 6.450626257248922 15.157703283998913 6.500000000000001
    vertex 5.842742662590595 15.459631030185093 1.0000000000000002
    vertex 6.450626257248922 15.157703283998913 1.0000000000000002
  endloop
endfacet
facet normal -0.44483813650857 -0.8956109826858885 2.165834365214196e-32
  outer loop
    vertex 5.842742662590595 15.459631030185093 1.0000000000000002
    vertex 6.450626257248922 15.157703283998913 6.500000000000001
    vertex 5.842742662590595 15.459631030185093 6.500000000000001
  endloop
endfacet
facet normal 0.0 0.0 -1.0
  outer loop
    vertex 8.5 40.0 0.0
    vertex 1.5 0.0 0.0
    vertex 1.5 40.0 0.0
  endloop
endfacet
facet normal 0.0 0.0 -1.0
  outer loop
    vertex 1.5 0.0 0.0
    vertex 8.5 40.0 0.0
    vertex 8.5 0.0 0.0
  endloop
endfacet
facet normal -0.0 -1.0 -0.0
  outer loop
    vertex 8.5 0.0 6.500000000000001
    vertex 1.5 0.0 0.0
    vertex 8.5 0.0 0.0
  endloop
endfacet
facet normal -0.0 -1.0 -0.0
  outer loop
    vertex 1.5 0.0 0.0
    vertex 8.5 0.0 6.500000000000001
    vertex 1.5 0.0 6.500000000000001
  endloop
endfacet
facet normal -1.0 0.0 0.0
  outer loop
    vertex 1.5 40.0 6.500000000000001
    vertex 1.5 0.0 0.0
    vertex 1.5 0.0 6.500000000000001
  endloop
endfacet
facet normal -1.0 0.0 0.0
  outer loop
    vertex 1.5 0.0 0.0
    vertex 1.5 40.0 6.500000000000001
    vertex 1.5 40.0 0.0
  endloop
endfacet
facet normal 0.0 1.0 0.0
  outer loop
    vertex 1.5 40.0 6.500000000000001
    vertex 8.5 40.0 0.0
    vertex 1.5 40.0 0.0
  endloop
endfacet
facet normal 0.0 1.0 0.0
  outer loop
    vertex 8.5 40.0 0.0
    vertex 1.5 40.0 6.500000000000001
    vertex 8.5 40.0 6.500000000000001
  endloop
endfacet
facet normal 1.0 0.0 0.0
  outer loop
    vertex 8.5 40.0 0.0
    vertex 8.5 0.0 6.500000000000001
    vertex 8.5 0.0 0.0
  endloop
endfacet
facet normal 1.0 0.0 0.0
  outer loop
    vertex 8.5 0.0 6.500000000000001
    vertex 8.5 40.0 0.0
    vertex 8.5 40.0 6.500000000000001
  endloop
endfacet
facet normal 0.0 0.0 1.0
  outer loop
    vertex 2.4885928516484324 20.672929517266486 6.500000000000001
    vertex 2.4075150821246996 26.80246025567218 6.500000000000001
    vertex 2.40000000000001 19.999999999999932 6.500000000000001
  endloop
endfacet
facet normal 0.0 0.0 1.0
  outer loop
    vertex 2.4075150821246996 26.80246025567218 6.500000000000001
    vertex 2.4885928516484324 20.672929517266486 6.500000000000001
    vertex 2.546978911556059 26.13820678834804 6.500000000000001
  endloop
endfacet
facet normal 0.0 0.0 1.0
  outer loop
    vertex 2.546978911556059 26.13820678834804 6.500000000000001
    vertex 2.4885928516484324 20.672929517266486 6.500000000000001
    vertex 2.748333950160469 21.299999999999933 6.500000000000001
  endloop
endfacet
facet normal 0.0 0.0 1.0
  outer loop
    vertex 2.546978911556059 26.13820678834804 6.500000000000001
    vertex 2.748333950160469 21.299999999999933 6.500000000000001
    vertex 2.8536120743558535 25.532683104217362 6.500000000000001
  endloop
endfacet
facet normal 0.0 0.0 1.0
  outer loop
    vertex 2.8536120743558535 25.532683104217362 6.500000000000001
    vertex 2.748333950160469 21.299999999999933 6.500000000000001
    vertex 3.161522368914986 21.838477631084956 6.500000000000001
  endloop
endfacet
facet normal 0.0 0.0 1.0
  outer loop
    vertex 2.8536120743558535 25.532683104217362 6.500000000000001
    vertex 3.161522368914986 21.838477631084956 6.500000000000001
    vertex 3.3065180272145387 25.027154641678443 6.500000000000001
  endloop
endfacet
facet normal 0.0 0.0 1.0
  outer loop
    vertex 3.3065180272145387 25.027154641678443 6.500000000000001
    vertex 3.161522368914986 21.838477631084956 6.500000000000001
    vertex 3.7000000000000086 22.25166604983947 6.500000000000001
  endloop
endfacet
facet normal 0.0 0.0 1.0
  outer loop
    vertex 3.3065180272145387 25.027154641678443 6.500000000000001
    vertex 3.7000000000000086 22.25166604983947 6.500000000000001
    vertex 3.87483197790727 24.656072330028028 6.500000000000001
  endloop
endfacet
facet normal 0.0 0.0 1.0
  outer loop
    vertex 3.87483197790727 24.656072330028028 6.500000000000001
    vertex 3.7000000000000086 22.25166604983947 6.500000000000001
    vertex 4.327070482733454 22.51140714835151 6.500000000000001
  endloop
endfacet
facet normal 0.0 0.0 1.0
  outer loop
    vertex 3.87483197790727 24.656072330028028 6.500000000000001
    vertex 4.327070482733454 22.51140714835151 6.500000000000001
    vertex 4.519824269877549 24.444724815562576 6.500000000000001
  endloop
endfacet
facet normal 0.0 0.0 1.0
  outer loop
    vertex 4.519824269877549 24.444724815562576 6.500000000000001
    vertex 4.327070482733454 22.51140714835151 6.500000000000001
    vertex 5.00000000000001 22.599999999999934 6.500000000000001
  endloop
endfacet
facet normal 0.0 0.0 1.0
  outer loop
    vertex 4.519824269877549 24.444724815562576 6.500000000000001
    vertex 5.00000000000001 22.599999999999934 6.500000000000001
    vertex 5.1975397443277584 24.40751508212463 6.500000000000001
  endloop
endfacet
facet normal 0.0 0.0 1.0
  outer loop
    vertex 5.1975397443277584 24.40751508212463 6.500000000000001
    vertex 5.00000000000001 22.599999999999934 6.500000000000001
    vertex 5.672929517266564 22.511407148351513 6.500000000000001
  endloop
endfacet
facet normal 0.0 0.0 1.0
  outer loop
    vertex 5.1975397443277584 24.40751508212463 6.500000000000001
    vertex 5.672929517266564 22.511407148351513 6.500000000000001
    vertex 5.861793211651896 24.546978911555986 6.500000000000001
  endloop
endfacet
facet normal 0.0 0.0 1.0
  outer loop
    vertex 5.861793211651896 24.546978911555986 6.500000000000001
    vertex 5.672929517266564 22.511407148351513 6.500000000000001
    vertex 6.300000000000009 22.251666049839475 6.500000000000001
  endloop
endfacet
facet normal 0.0 0.0 1.0
  outer loop
    vertex 5.861793211651896 24.546978911555986 6.500000000000001
    vertex 6.300000000000009 22.251666049839475 6.500000000000001
    vertex 6.467316895782575 24.853612074355784 6.500000000000001
  endloop
endfacet
facet normal 0.0 0.0 1.0
  outer loop
    vertex 6.467316895782575 24.853612074355784 6.500000000000001
    vertex 6.300000000000009 22.251666049839475 6.500000000000001
    vertex 6.838477631085034 21.838477631084956 6.500000000000001
  endloop
endfacet
facet normal 0.0 0.0 1.0
  outer loop
    vertex 6.467316895782575 24.853612074355784 6.500000000000001
    vertex 6.838477631085034 21.838477631084956 6.500000000000001
    vertex 6.972845358321494 25.30651802721447 6.500000000000001
  endloop
endfacet
facet normal 0.0 0.0 1.0
  outer loop
    vertex 6.972845358321494 25.30651802721447 6.500000000000001
    vertex 6.838477631085034 21.838477631084956 6.500000000000001
    vertex 7.251666049839551 21.299999999999933 6.500000000000001
  endloop
endfacet
facet normal 0.0 0.0 1.0
  outer loop
    vertex 6.972845358321494 25.30651802721447 6.500000000000001
    vertex 7.251666049839551 21.299999999999933 6.500000000000001
    vertex 7.343927669971911 25.8748319779072 6.500000000000001
  endloop
endfacet
facet normal 0.0 0.0 1.0
  outer loop
    vertex 7.343927669971911 25.8748319779072 6.500000000000001
    vertex 7.251666049839551 21.299999999999933 6.500000000000001
    vertex 7.511407148351589 20.67292951726649 6.500000000000001
  endloop
endfacet
facet normal 0.0 0.0 1.0
  outer loop
    vertex 7.343927669971911 25.8748319779072 6.500000000000001
    vertex 7.511407148351589 20.67292951726649 6.500000000000001
    vertex 7.555275184437361 26.519824269877475 6.500000000000001
  endloop
endfacet
facet normal 0.0 0.0 1.0
  outer loop
    vertex 7.555275184437361 26.519824269877475 6.500000000000001
    vertex 7.511407148351589 20.67292951726649 6.500000000000001
    vertex 7.600000000000011 19.999999999999932 6.500000000000001
  endloop
endfacet
facet normal 0.0 0.0 1.0
  outer loop
    vertex 7.555275184437361 26.519824269877475 6.500000000000001
    vertex 7.600000000000011 19.999999999999932 6.500000000000001
    vertex 7.59248491787531 27.197539744327685 6.500000000000001
  endloop
endfacet
facet normal 0.0 0.0 1.0
  outer loop
    vertex 1.5 0.0 6.500000000000001
    vertex 2.406061013603314 13.17742754817475 6.500000000000001
    vertex 1.5 40.0 6.500000000000001
  endloop
endfacet
facet normal 0.0 0.0 1.0
  outer loop
    vertex 2.406061013603314 13.17742754817475 6.500000000000001
    vertex 1.5 0.0 6.500000000000001
    vertex 2.448525712627865 12.500021039563745 6.500000000000001
  endloop
endfacet
facet normal 0.0 0.0 1.0
  outer loop
    vertex 2.448525712627865 12.500021039563745 6.500000000000001
    vertex 1.5 0.0 6.500000000000001
    vertex 2.664869167826203 11.856687270852168 6.500000000000001
  endloop
endfacet
facet normal 0.0 0.0 1.0
  outer loop
    vertex 2.664869167826203 11.856687270852168 6.500000000000001
    vertex 1.5 0.0 6.500000000000001
    vertex 8.5 0.0 6.500000000000001
  endloop
endfacet
facet normal 0.0 0.0 1.0
  outer loop
    vertex 1.5 40.0 6.500000000000001
    vertex 2.406061013603314 13.17742754817475 6.500000000000001
    vertex 2.40000000000001 19.999999999999932 6.500000000000001
  endloop
endfacet
facet normal 0.0 0.0 1.0
  outer loop
    vertex 2.664869167826203 11.856687270852168 6.500000000000001
    vertex 8.5 0.0 6.500000000000001
    vertex 3.0403479302510266 11.29126837521839 6.500000000000001
  endloop
endfacet
facet normal 0.0 0.0 1.0
  outer loop
    vertex 3.0403479302510266 11.29126837521839 6.500000000000001
    vertex 8.5 0.0 6.500000000000001
    vertex 3.549373742751078 10.84229671600095 6.500000000000001
  endloop
endfacet
facet normal 0.0 0.0 1.0
  outer loop
    vertex 3.549373742751078 10.84229671600095 6.500000000000001
    vertex 8.5 0.0 6.500000000000001
    vertex 4.157257337409406 10.54036896981477 6.500000000000001
  endloop
endfacet
facet normal 0.0 0.0 1.0
  outer loop
    vertex 4.157257337409406 10.54036896981477 6.500000000000001
    vertex 8.5 0.0 6.500000000000001
    vertex 4.822572451825183 10.406061013603244 6.500000000000001
  endloop
endfacet
facet normal 0.0 0.0 1.0
  outer loop
    vertex 4.822572451825183 10.406061013603244 6.500000000000001
    vertex 8.5 0.0 6.500000000000001
    vertex 5.499978960436188 10.448525712627795 6.500000000000001
  endloop
endfacet
facet normal 0.0 0.0 1.0
  outer loop
    vertex 5.499978960436188 10.448525712627795 6.500000000000001
    vertex 8.5 0.0 6.500000000000001
    vertex 6.143312729147764 10.664869167826133 6.500000000000001
  endloop
endfacet
facet normal 0.0 0.0 1.0
  outer loop
    vertex 6.143312729147764 10.664869167826133 6.500000000000001
    vertex 8.5 0.0 6.500000000000001
    vertex 6.708731624781541 11.040347930250958 6.500000000000001
  endloop
endfacet
facet normal 0.0 0.0 1.0
  outer loop
    vertex 6.708731624781541 11.040347930250958 6.500000000000001
    vertex 8.5 0.0 6.500000000000001
    vertex 7.1577032839989805 11.54937374275101 6.500000000000001
  endloop
endfacet
facet normal 0.0 0.0 1.0
  outer loop
    vertex 7.1577032839989805 11.54937374275101 6.500000000000001
    vertex 8.5 0.0 6.500000000000001
    vertex 7.459631030185162 12.157257337409336 6.500000000000001
  endloop
endfacet
facet normal 0.0 0.0 1.0
  outer loop
    vertex 7.459631030185162 12.157257337409336 6.500000000000001
    vertex 8.5 0.0 6.500000000000001
    vertex 7.593938986396688 12.822572451825112 6.500000000000001
  endloop
endfacet
facet normal 0.0 0.0 1.0
  outer loop
    vertex 7.593938986396688 12.822572451825112 6.500000000000001
    vertex 8.5 0.0 6.500000000000001
    vertex 7.600000000000011 19.999999999999932 6.500000000000001
  endloop
endfacet
facet normal 0.0 0.0 1.0
  outer loop
    vertex 1.5 40.0 6.500000000000001
    vertex 2.6560723300280986 28.12516802209267 6.500000000000001
    vertex 8.5 40.0 6.500000000000001
  endloop
endfacet
facet normal 0.0 0.0 1.0
  outer loop
    vertex 2.6560723300280986 28.12516802209267 6.500000000000001
    vertex 1.5 40.0 6.500000000000001
    vertex 2.4447248155626466 27.48017573012239 6.500000000000001
  endloop
endfacet
facet normal 0.0 0.0 1.0
  outer loop
    vertex 2.4447248155626466 27.48017573012239 6.500000000000001
    vertex 1.5 40.0 6.500000000000001
    vertex 2.4075150821246996 26.80246025567218 6.500000000000001
  endloop
endfacet
facet normal 0.0 0.0 1.0
  outer loop
    vertex 2.4075150821246996 26.80246025567218 6.500000000000001
    vertex 1.5 40.0 6.500000000000001
    vertex 2.40000000000001 19.999999999999932 6.500000000000001
  endloop
endfacet
facet normal 0.0 0.0 1.0
  outer loop
    vertex 8.5 40.0 6.500000000000001
    vertex 2.6560723300280986 28.12516802209267 6.500000000000001
    vertex 3.027154641678514 28.6934819727854 6.500000000000001
  endloop
endfacet
facet normal 0.0 0.0 1.0
  outer loop
    vertex 8.5 40.0 6.500000000000001
    vertex 3.027154641678514 28.6934819727854 6.500000000000001
    vertex 3.532683104217432 29.146387925644085 6.500000000000001
  endloop
endfacet
facet normal 0.0 0.0 1.0
  outer loop
    vertex 8.5 40.0 6.500000000000001
    vertex 3.532683104217432 29.146387925644085 6.500000000000001
    vertex 4.138206788348112 29.45302108844388 6.500000000000001
  endloop
endfacet
facet normal 0.0 0.0 1.0
  outer loop
    vertex 8.5 40.0 6.500000000000001
    vertex 4.138206788348112 29.45302108844388 6.500000000000001
    vertex 4.802460255672249 29.59248491787524 6.500000000000001
  endloop
endfacet
facet normal 0.0 0.0 1.0
  outer loop
    vertex 8.5 40.0 6.500000000000001
    vertex 4.802460255672249 29.59248491787524 6.500000000000001
    vertex 5.4801757301224585 29.555275184437292 6.500000000000001
  endloop
endfacet
facet normal 0.0 0.0 1.0
  outer loop
    vertex 8.5 40.0 6.500000000000001
    vertex 5.4801757301224585 29.555275184437292 6.500000000000001
    vertex 6.125168022092737 29.343927669971844 6.500000000000001
  endloop
endfacet
facet normal 0.0 0.0 1.0
  outer loop
    vertex 8.5 40.0 6.500000000000001
    vertex 6.125168022092737 29.343927669971844 6.500000000000001
    vertex 6.693481972785469 28.972845358321422 6.500000000000001
  endloop
endfacet
facet normal 0.0 0.0 1.0
  outer loop
    vertex 8.5 40.0 6.500000000000001
    vertex 6.693481972785469 28.972845358321422 6.500000000000001
    vertex 7.146387925644155 28.467316895782506 6.500000000000001
  endloop
endfacet
facet normal 0.0 0.0 1.0
  outer loop
    vertex 8.5 40.0 6.500000000000001
    vertex 7.146387925644155 28.467316895782506 6.500000000000001
    vertex 7.453021088443949 27.861793211651825 6.500000000000001
  endloop
endfacet
facet normal 0.0 0.0 1.0
  outer loop
    vertex 8.5 40.0 6.500000000000001
    vertex 7.453021088443949 27.861793211651825 6.500000000000001
    vertex 7.59248491787531 27.197539744327685 6.500000000000001
  endloop
endfacet
facet normal 0.0 0.0 1.0
  outer loop
    vertex 8.5 40.0 6.500000000000001
    vertex 7.59248491787531 27.197539744327685 6.500000000000001
    vertex 7.600000000000011 19.999999999999932 6.500000000000001
  endloop
endfacet
facet normal 0.0 0.0 1.0
  outer loop
    vertex 8.5 40.0 6.500000000000001
    vertex 7.600000000000011 19.999999999999932 6.500000000000001
    vertex 8.5 0.0 6.500000000000001
  endloop
endfacet
facet normal 0.0 0.0 1.0
  outer loop
    vertex 2.406061013603314 13.17742754817475 6.500000000000001
    vertex 2.488592851648433 19.327070482733376 6.500000000000001
    vertex 2.40000000000001 19.999999999999932 6.500000000000001
  endloop
endfacet
facet normal 0.0 0.0 1.0
  outer loop
    vertex 2.488592851648433 19.327070482733376 6.500000000000001
    vertex 2.406061013603314 13.17742754817475 6.500000000000001
    vertex 2.54036896981484 13.842742662590526 6.500000000000001
  endloop
endfacet
facet normal 0.0 0.0 1.0
  outer loop
    vertex 2.488592851648433 19.327070482733376 6.500000000000001
    vertex 2.54036896981484 13.842742662590526 6.500000000000001
    vertex 2.74833395016047 18.699999999999932 6.500000000000001
  endloop
endfacet
facet normal 0.0 0.0 1.0
  outer loop
    vertex 2.74833395016047 18.699999999999932 6.500000000000001
    vertex 2.54036896981484 13.842742662590526 6.500000000000001
    vertex 2.842296716001021 14.450626257248853 6.500000000000001
  endloop
endfacet
facet normal 0.0 0.0 1.0
  outer loop
    vertex 2.74833395016047 18.699999999999932 6.500000000000001
    vertex 2.842296716001021 14.450626257248853 6.500000000000001
    vertex 3.1615223689149867 18.16152236891491 6.500000000000001
  endloop
endfacet
facet normal 0.0 0.0 1.0
  outer loop
    vertex 3.1615223689149867 18.16152236891491 6.500000000000001
    vertex 2.842296716001021 14.450626257248853 6.500000000000001
    vertex 3.29126837521846 14.959652069748905 6.500000000000001
  endloop
endfacet
facet normal 0.0 0.0 1.0
  outer loop
    vertex 3.1615223689149867 18.16152236891491 6.500000000000001
    vertex 3.29126837521846 14.959652069748905 6.500000000000001
    vertex 3.700000000000011 17.74833395016039 6.500000000000001
  endloop
endfacet
facet normal 0.0 0.0 1.0
  outer loop
    vertex 3.700000000000011 17.74833395016039 6.500000000000001
    vertex 3.29126837521846 14.959652069748905 6.500000000000001
    vertex 3.8566872708522357 15.335130832173729 6.500000000000001
  endloop
endfacet
facet normal 0.0 0.0 1.0
  outer loop
    vertex 3.700000000000011 17.74833395016039 6.500000000000001
    vertex 3.8566872708522357 15.335130832173729 6.500000000000001
    vertex 4.327070482733457 17.488592851648352 6.500000000000001
  endloop
endfacet
facet normal 0.0 0.0 1.0
  outer loop
    vertex 4.327070482733457 17.488592851648352 6.500000000000001
    vertex 3.8566872708522357 15.335130832173729 6.500000000000001
    vertex 4.500021039563814 15.551474287372068 6.500000000000001
  endloop
endfacet
facet normal 0.0 0.0 1.0
  outer loop
    vertex 4.327070482733457 17.488592851648352 6.500000000000001
    vertex 4.500021039563814 15.551474287372068 6.500000000000001
    vertex 5.000000000000011 17.39999999999993 6.500000000000001
  endloop
endfacet
facet normal 0.0 0.0 1.0
  outer loop
    vertex 5.000000000000011 17.39999999999993 6.500000000000001
    vertex 4.500021039563814 15.551474287372068 6.500000000000001
    vertex 5.177427548174817 15.59393898639662 6.500000000000001
  endloop
endfacet
facet normal 0.0 0.0 1.0
  outer loop
    vertex 5.000000000000011 17.39999999999993 6.500000000000001
    vertex 5.177427548174817 15.59393898639662 6.500000000000001
    vertex 5.6729295172665655 17.488592851648356 6.500000000000001
  endloop
endfacet
facet normal 0.0 0.0 1.0
  outer loop
    vertex 5.6729295172665655 17.488592851648356 6.500000000000001
    vertex 5.177427548174817 15.59393898639662 6.500000000000001
    vertex 5.842742662590595 15.459631030185093 6.500000000000001
  endloop
endfacet
facet normal 0.0 0.0 1.0
  outer loop
    vertex 5.6729295172665655 17.488592851648356 6.500000000000001
    vertex 5.842742662590595 15.459631030185093 6.500000000000001
    vertex 6.300000000000011 17.74833395016039 6.500000000000001
  endloop
endfacet
facet normal 0.0 0.0 1.0
  outer loop
    vertex 6.300000000000011 17.74833395016039 6.500000000000001
    vertex 5.842742662590595 15.459631030185093 6.500000000000001
    vertex 6.450626257248922 15.157703283998913 6.500000000000001
  endloop
endfacet
facet normal 0.0 0.0 1.0
  outer loop
    vertex 6.300000000000011 17.74833395016039 6.500000000000001
    vertex 6.450626257248922 15.157703283998913 6.500000000000001
    vertex 6.838477631085035 18.16152236891491 6.500000000000001
  endloop
endfacet
facet normal 0.0 0.0 1.0
  outer loop
    vertex 6.838477631085035 18.16152236891491 6.500000000000001
    vertex 6.450626257248922 15.157703283998913 6.500000000000001
    vertex 6.959652069748975 14.708731624781473 6.500000000000001
  endloop
endfacet
facet normal 0.0 0.0 1.0
  outer loop
    vertex 6.838477631085035 18.16152236891491 6.500000000000001
    vertex 6.959652069748975 14.708731624781473 6.500000000000001
    vertex 7.251666049839551 18.699999999999932 6.500000000000001
  endloop
endfacet
facet normal 0.0 0.0 1.0
  outer loop
    vertex 7.251666049839551 18.699999999999932 6.500000000000001
    vertex 6.959652069748975 14.708731624781473 6.500000000000001
    vertex 7.335130832173798 14.143312729147697 6.500000000000001
  endloop
endfacet
facet normal 0.0 0.0 1.0
  outer loop
    vertex 7.251666049839551 18.699999999999932 6.500000000000001
    vertex 7.335130832173798 14.143312729147697 6.500000000000001
    vertex 7.511407148351589 19.327070482733376 6.500000000000001
  endloop
endfacet
facet normal 0.0 0.0 1.0
  outer loop
    vertex 7.511407148351589 19.327070482733376 6.500000000000001
    vertex 7.335130832173798 14.143312729147697 6.500000000000001
    vertex 7.551474287372136 13.49997896043612 6.500000000000001
  endloop
endfacet
facet normal 0.0 0.0 1.0
  outer loop
    vertex 7.511407148351589 19.327070482733376 6.500000000000001
    vertex 7.551474287372136 13.49997896043612 6.500000000000001
    vertex 7.600000000000011 19.999999999999932 6.500000000000001
  endloop
endfacet
facet normal 0.0 0.0 1.0
  outer loop
    vertex 7.600000000000011 19.999999999999932 6.500000000000001
    vertex 7.551474287372136 13.49997896043612 6.500000000000001
    vertex 7.593938986396688 12.822572451825112 6.500000000000001
  endloop
endfacet
endsolid window unit
